<?xml version="1.0" encoding="utf-8"?>
<!-- Generator: Adobe Illustrator 17.1.0, SVG Export Plug-In . SVG Version: 6.00 Build 0)  -->
<!DOCTYPE svg PUBLIC "-//W3C//DTD SVG 1.1//EN" "http://www.w3.org/Graphics/SVG/1.1/DTD/svg11.dtd">
<svg version="1.1" id="Layer_1" xmlns:xml="http://www.w3.org/XML/1998/namespace"
	 xmlns="http://www.w3.org/2000/svg" xmlns:xlink="http://www.w3.org/1999/xlink" x="0px" y="0px" viewBox="0 0 595.3 841.9"
	 enable-background="new 0 0 595.3 841.9" xml:space="preserve">
<path fill="#231F20" d="M195.3,340.9c0.1,0.1,0.2,0.4,0.1,0.7c-0.1,0.2-0.2,0.3-0.4,0.5c-0.2,0.2-0.7,0.4-1.1,0
	c-0.3-0.2-0.4-0.3-0.8-0.2c-0.3,0.1-0.5-0.3-0.3-0.5c0.1-0.3,0.6-0.5,1-0.2c0.3,0.2,0.7,0.5,0.9,0.2
	C195,341.2,195.1,341.1,195.3,340.9C195.2,340.9,195.3,340.9,195.3,340.9L195.3,340.9L195.3,340.9z M192.1,319.3
	c-8.3,0-14.9,6.6-14.9,14.9c0,1.6,0.3,3.2,0.8,4.7h1c0.9,0,1.8-0.3,2.5-0.6c0.2-0.1,0.4-0.2,0.6-0.2c0.5,0,0.9,0.2,1,0.6
	c0.2,0.4,0.5,0.6,0.7,0.8c0.2,0.2,0.5,0.3,0.9,0.3c0.2,0,0.5-0.1,0.6-0.3c0.1-0.3,0-0.4-0.3-0.6c-0.4-0.2-0.5-0.4-0.8-0.8
	c-0.2-0.4-0.7-0.6-0.8-1.3c-0.1-0.7,0.5-1.5,1.5-1.3c0.8,0.2,1.3,1.1,1.4,1.5c0.1,0.2,0.5,0.4,0.8,0.1c0.3-0.3,0.6-0.3,0.8,0.1
	c0.2,0.3,1.5,2.1,2.9,2.1c1.4,0.1,2.3-0.4,2.8-0.3c0.5,0,0.7,0.3,0.9,0.3c0.5,0.1,0.8-0.4,1.2-0.3c0.4,0,0.9,0.3,1.3,0.3
	c0.5,0,1.4-0.6,1.3-0.4c0,0.4-0.4,1.1-0.4,1.4c-0.1,0.3,0,0.8-0.2,1.2c-0.1,0.5-0.6,1-0.7,1.1c-0.4,0.6-0.7,0.8-0.9,1.2
	c-0.4,0.7-0.9,1.2-1,1.4c-0.2,0.3,1,0,1.4-0.4c0.4-0.4,1-1.4,2-1.6c0.7-0.2,0.9-0.4,0.8-0.7c0-0.1,0-0.1,0-0.1
	c0-0.1,0.1-0.2,0.2-0.2c0.7-0.3,1.6-0.5,2.8-0.5c0.7,0,1.2,0.1,1.8,0.2c1.5-2.4,2.4-5.1,2.4-8.1
	C206.9,325.9,200.3,319.3,192.1,319.3z M204.1,333.8c-0.8,3.9-7.1,5.2-13.3,3.3c-6-1.8-11.1-5.4-10.5-7.5c0.4-1.2,2.3-1.8,4.8-1.4
	c-0.4,0.8-0.4,1.8,1.3,2.8c2.1,1.1,5.6,2.2,6.6,2.1c0.4-0.1,0.7-0.2,0.4-0.5c-0.4-0.2-0.6-0.7-0.8-1.3c-0.1-0.5-0.2-0.9-2.5-1.4
	c-4.8-0.9-4.7-2.3-4.5-3c0,0,0.5-1.9,0.6-2.6c0.2-0.7,0.7-2.3,3.8-1.5c1.8,0.4,2.8-0.1,3.2-0.3c1.3-0.4,2.8-0.1,3.7,0.8
	s2,3.6,2.6,5.6c0.3,1,0.2,1.5,0.1,1.9c-0.1,0.3-0.2,0.4-0.6,0.9c-0.1,0.1,0,0.3,0.2,0.2c0.9-0.5,1.1-1.1,1.2-1.6
	C202.9,330.8,204.4,332,204.1,333.8z M190.9,326.3c-1.7,0.2-1.9,0.3-2.2,0.7c-0.5,0.5-1-0.7-1-0.7c-0.4-0.1-0.8-0.7-0.6-1.1
	c0.3-0.6,0.7-0.4,0.8-0.2c0.1,0.2,0.5,0.6,0.9,0.6c0.5,0,0.9-0.1,1.7-0.1s1.2,0.3,1.2,0.5C191.8,326.1,191.7,326.3,190.9,326.3
	L190.9,326.3z M192.7,323.6L192.7,323.6L192.7,323.6C192.7,323.5,192.7,323.5,192.7,323.6c0.4-0.3,0.9-0.4,1.4-0.5
	c0.2,0,0.4-0.1,0.5-0.1s0.1,0,0.1,0c0.9,0,1.7,0.4,1.7,0.9c0,0.5-0.8,0.8-1.8,0.8c-0.3,0-0.6-0.1-0.9-0.2c-0.1,0-0.1-0.1-0.1-0.1
	c0-0.1,0-0.1,0.1-0.1c0.6-0.2,0.9-0.4,0.9-0.6c-0.1-0.3-0.9-0.5-1.8-0.4C192.9,323.5,192.8,323.6,192.7,323.6L192.7,323.6z"/>
<head></head>
<g>
	<path fill="#0E0D19" d="M235.4,335.3L235.4,335.3L235.4,335.3z"/>
	<path fill="#0E0D19" d="M227.3,333.2l4,11c-1.3,0.5-2.8,0.8-4.3,0.8c-1.2,0-2.5-0.2-3.7-0.6L227.3,333.2z M214.4,332.3
		c0,5,2.9,9.5,7.2,11.5l-6.1-16.7C214.7,328.6,214.4,330.4,214.4,332.3z M221,325.4v0.8c0,0.1-0.1,0.1-0.1,0.1h-1.4
		c-0.2,0-0.2,0.1-0.2,0.3l4.6,13.6l2.8-8.5l-1.9-5.1c-0.1-0.2-0.2-0.3-0.5-0.3H223c-0.1,0-0.1-0.1-0.1-0.1v-0.8
		c0-0.1,0.1-0.1,0.1-0.1c2.4,0.1,4.8,0.1,7.2,0c0.1,0,0.1,0.1,0.1,0.1v0.8c0,0.1-0.1,0.1-0.1,0.1H229c-0.3,0-0.4,0.1-0.3,0.3
		l4.6,13.4l1.6-5c2-6.2-1.7-6.7-1.6-9.9c0-1.5,1.1-2.2,2.3-2.2c-2.3-2.1-5.2-3.3-8.5-3.3l0,0c-4.5,0-8.4,2.3-10.6,5.8
		c1.4,0,2.9,0,4.6-0.1C221,325.3,221,325.3,221,325.4z M241.7,332.3c0,8.2-6.6,14.8-14.7,14.8c-8.2,0-14.7-6.6-14.7-14.8
		s6.6-14.8,14.7-14.8C235.2,317.5,241.7,324.1,241.7,332.3z M240.9,332.3c0-7.7-6.2-13.9-13.9-13.9c-7.6,0-13.9,6.3-13.9,13.9
		c0,7.7,6.2,13.9,13.9,13.9S240.9,339.9,240.9,332.3z M238.1,326.2c0.1,1.9-0.5,4.3-1.1,6l-4,11.2c3.9-2.2,6.6-6.4,6.6-11.1
		C239.6,330.1,239.2,328,238.1,326.2z"/>
</g>
<path fill="#231F20" d="M250.3,325.5l12.2-7.5l12.2,7.4V339l-3.2,2v-13.7l-9.1-5.6l-8.8,5.5v13.7c0,0-2.8-1.8-3.2-2 M256.8,343.1
	l5.7,3.5l5.7-3.4v-14.1l-3.9-2.4v16l-1.8,1.1l-1.8-1.3v-15.8l-3.9,2.5"/>
<path fill="#231F20" d="M302.1,324c1.2,0.7,2.7,0.3,3.3-0.9c0.7-1.1,0.3-2.6-0.9-3.2c-1.2-0.7-2.7-0.3-3.3,0.9
	C300.5,322,300.9,323.4,302.1,324z M297.1,339.3c-1.1,0-2.1-0.2-3-0.6l-1.7,2.9c1.4,0.7,3,1.1,4.7,1.1c1,0,1.9-0.1,2.8-0.4
	c0.2-0.9,0.7-1.8,1.7-2.3c0.9-0.5,2-0.6,2.9-0.2c1.8-1.7,3-4,3.1-6.6h-3.5C303.8,336.5,300.8,339.3,297.1,339.3z M297.1,325.5
	c3.7,0,6.8,2.8,7.1,6.3h3.5c-0.2-2.6-1.3-4.9-3.2-6.6c-0.9,0.3-2,0.3-2.9-0.2c-0.9-0.5-1.5-1.4-1.7-2.3c-0.9-0.2-1.9-0.4-2.8-0.4
	c-1.7,0-3.3,0.4-4.7,1.1l1.7,2.9C295,325.7,296,325.5,297.1,325.5z M289.9,332.4c0-2.3,1.2-4.4,3-5.6l-1.8-2.9
	c-2.1,1.4-3.7,3.5-4.4,5.9c0.8,0.6,1.3,1.5,1.3,2.6c0,1-0.5,2-1.3,2.6c0.7,2.5,2.2,4.6,4.4,5.9l1.8-2.9
	C291.1,336.8,289.9,334.7,289.9,332.4z M302.1,340.7c-1.2,0.7-1.6,2.1-0.9,3.2c0.7,1.1,2.2,1.5,3.3,0.9c1.2-0.7,1.6-2.1,0.9-3.2
	C304.7,340.5,303.2,340.1,302.1,340.7z M284.6,330c-1.3,0-2.4,1.1-2.4,2.4c0,1.3,1.1,2.4,2.4,2.4c1.3,0,2.4-1.1,2.4-2.4
	C287.1,331.1,286,330,284.6,330"/>
<path fill="#231F20" d="M334.4,334.6c-1.6-0.2-2.7-0.8-3.8-1.5l0,0l-0.5,0.3l-2.3,8l0,0c1.1,0.7,2.6,1.5,4.2,1.7
	c2.4,0.3,5-0.7,5.8-1.1l2.4-8.2l-0.5-0.3C339.6,333.6,337.3,335,334.4,334.6z M329.4,332.3c-1.1-0.8-2.3-1.5-3.9-1.6
	c-0.3,0-0.6,0-0.8,0c-2.7,0-4.5,1.2-4.5,1.2l-2.3,8l0,0l0.5,0.3c0.9-0.4,2.5-1,4.6-0.9c1.5,0.1,2.6,0.7,3.7,1.4l0.5-0.2l0,0
	L329.4,332.3z M325.6,329.8c1.5,0.1,2.6,0.7,3.7,1.4l0.5-0.2l0,0l2.3-8c-1.1-0.8-2.3-1.5-3.9-1.6c-0.3,0-0.6,0-0.8,0
	c-2.7,0-4.5,1.2-4.5,1.2l-2.3,8l0.5,0.3C321.9,330.3,323.5,329.7,325.6,329.8z M342.3,324.3L342.3,324.3c0,0-2.3,1.3-5.2,1
	c-1.6-0.2-2.7-0.8-3.8-1.5l-0.5,0.3l-2.3,8l0,0c1.1,0.7,2.6,1.5,4.2,1.7c2.4,0.3,5-0.7,5.8-1.1l2.4-8.2L342.3,324.3z"/>
<path fill="#231F20" d="M355,337.5c0.3,0.6,0.8,1.4,0.8,1.4c-0.1,0.4-0.2,1.4-2.1-0.2c-1-0.9-0.7-1.6-0.4-1.8
	c0.3-0.2,0.7-0.7,0.8-0.8c0.1-0.1,0.2-0.3,0.2-0.5C354.3,335.7,354.8,336.9,355,337.5z M371.1,328.5c0-0.2-0.2-0.3-0.4-0.3
	s-0.4,0.2-0.4,0.4c0,0.2,0.1,0.3,0.2,0.3C370.8,328.8,370.8,328.7,371.1,328.5z M367.4,340.5c0,0,0.6,0.2,1.8,0.2
	c0.6,0,0.9,0.1,1-0.5c0.1-0.5-0.1-0.6-0.2-0.7s0-1.2,0-1.6c0-0.4-0.5-1.5-0.5-1.5C369.1,339.2,367.8,340.1,367.4,340.5z
	 M354.6,330.7c0,0-0.6,0.6-1,0.5c-0.4-0.1-0.5-0.6-0.5-0.6s0.3-0.2,0.3-0.6c0.1-0.3,0-0.5,0.1-0.8c0.1-0.3,0.2-0.7,0.2-0.7
	c-1.5,1.1-1.2,1.7-1,2.1c0.2,0.4,0.1,0.9,0.6,1c0.4,0.2,1-0.2,1-0.2L354.6,330.7z M379,326.1c0.2,0.4,0.6,2.2,0.6,3.8
	c0,1.4-0.5,2.5-1,3.1c-2.4,3.1-7,0.3-7,0.3c0.1,0.8,0,1.1,0,1.1c-0.1,0.4-0.4,1-0.2,1.4c0.5,0.7,1.4,0.2,1.3,0.2
	c-0.9,0.2-1-0.3-1-0.3s0.6,0.2,1.1,0.1c0.5-0.2,0.6-1.2,0.7-1.1s0.3,0.1,0.3,0.1s-0.2,1.6-1.8,1.8c-0.6,0.1-1.1-0.5-1.3-0.7
	c-0.2-0.2-1-0.8-1-0.8c-0.2-0.1-0.6-0.2-1.1-0.4c-0.5-0.2-0.9-0.6-0.9-0.6c0.2,0.6,1.4,1.1,1.4,1.2c0,0-0.3,1.6-0.7,2.8
	c-0.5,1.3-1.2,1.9-1.4,2.1c-0.3,0.3-0.9,0.7-1.1,1c-0.2,0.2-0.7,0.5-0.8,0.6c-0.2,0.2-0.4,0.5-0.4,0.5c-0.2,0.2-0.7,0.6-1.3,0.2
	c-0.1-0.1-0.5-0.5-0.7-0.9c-0.3-0.4-0.5-1-0.6-1.1c-0.1-0.3,0-0.4,0.1-0.6c0.1-0.1,1-0.6,1.1-0.7s0.2-0.1,0.2,0s0.2,0.3,0.2,0.2
	s-0.1-0.6-0.1-0.9c0-0.3,0.1-1,0.1-0.9c0,0.1-0.3,1-0.4,1c-0.2,0-1.1,0.2-1.6,0.2s-1.4,0-1.5-0.2c-0.2-0.2-0.3-1-0.3-1s0.1,1.6,0,2
	c-0.1,0.4-0.2,0.6-0.2,0.6c-0.1,0.2-0.2,0.3-0.4,0.6c-0.2,0.3-0.2,0.3-0.2,0.8c0,0.6-0.1,0.6-0.8,0.6c-0.7,0.1-2.1-0.4-2.4-0.6
	c-0.3-0.2-0.3-0.4-0.2-0.8c0.1-0.4,0.4-1.9,0.4-1.9c-1.8-2.4-3-5.7-1-9c1.5-2.6,4.2-3.2,5.6-3.3c0,0-1.9,1.8-2.6,3.4
	c-0.3,0.8-0.2,1.5,0.2,1.8c0.5,0.2,1.2,1.7,1.2,1.7s-0.5,1-0.3,1.2c0,0,0.2,0.2,0.6,0.6c0.4,0.3,1,0.8,1.8,0.7
	c0.6,0,2.1-0.9,2.7-1.2s1.6-0.3,1.6-0.4c0,0,0.4-0.8,0.5-1.8c0.1-1.1-0.2-2.4-0.3-2.7c-0.1-0.5-0.2-2.5-0.2-2.5s-0.2,1.1-0.2,2.5
	c0,0.5,0.2,1.9,0.2,2.3c0,1.4-0.5,1.8-0.5,1.8c-0.9,0-2.7,1-3.2,1.3c-0.2,0.2-0.6,0.2-0.9,0.2c-0.3,0-0.6-0.1-0.8-0.2
	c-0.5-0.2-0.9-0.9-0.9-0.9c-0.1-0.2,0.1-0.8,0.4-1.3c0.6-1.1,1.4-2.3,1.3-2.2c-0.2,0.2-1.6,2.1-1.6,2.1c0-0.3-0.7-1.1-1.1-1.7
	c-0.2-0.2-0.1-0.6-0.1-0.8c0.1-0.2,0.3-1,0.9-1.7c1.2-1.5,3-3.4,3.3-3.7c0.4-0.3,0.7-0.3,1-0.4c0.2-0.1,2.4-0.5,2.2-0.4
	c-0.2,0-1.8,0.1-1.8,0c0.1-0.2,0.6-0.9,1.6-1.4c1-0.5,2.4-1,3.4-1c1.2,0,2.5,0.9,3.4,1.6c0.6,0.6,1.1,0.9,1,0.9
	c-0.2-0.1-0.5,0.1-0.5,0.1c0.2,0,1,0.2,1.5,0.6c0.5,0.5,0.8,1.2,1,1.4c-0.2-0.2-0.7-0.3-1-0.1c-0.2,0.1-0.7,0.2-0.7,0.2h0.5
	c-0.1,0.1,0,0.3,0,0.4v-0.1c0.1-0.2,0.2-0.2,0.4-0.1c0.2,0.1,0.2,0.2,0.2,0.3c-0.2,0-0.2,0-0.5,0.1l0,0l0,0c0,0-0.3,0.2-0.2,0.1
	c0.2-0.1,1-0.1,1.2,0c0.1,0.2,0.1,0.6,0.1,0.6c-0.6-0.3-1.5-0.2-1.8,0.5c-0.1,0.2-0.4,1-0.4,1c0.2-0.2,0.3-0.7,0.7-1
	c0.3-0.3,1-0.3,0.8-0.2c-0.2,0.1-0.5,0.6-0.6,0.8c0,0.2-0.2,1.2-0.2,1.2c0.2-0.2,0.3-1.3,0.7-1.7c0.4-0.3,0.6-0.2,0.6-0.2
	c0.2,0.6-0.2,2.3-0.2,2.3c0.2-0.2,0.4-0.7,0.5-1.4c0.1-0.7,0.1-1.6,0-1.8c-0.1-0.4,0.2-0.6,0.3-0.6c0.3-0.2,0.6-0.2,0.9-0.5
	c0.3-0.2,0.6-0.8,0.8-0.9C378.3,325.3,378.7,325.3,379,326.1z M365.8,325.4c-0.2,0-0.5,0.1-0.7,0.1c-0.6,0.1-1-0.1-1.4,0.3
	c-0.6,0.5-0.8,1.4-1.1,2.5c0,0.1,0,0.1-0.1,0.2v0.1c0.1-0.2,0.4-1,0.7-1.6s0.7-0.9,0.8-1c-0.1,0-0.2,0.2-0.2,0.6
	c-0.1,0.5,0.1,1,0.1,0.7c0-0.4,0.4-1.2,0.7-1.4C365,325.7,365.5,325.5,365.8,325.4z M370.1,325.3c-0.2,0.1-1,0.2-1.2,0.6
	c-0.2,0.3-0.2,1.1-0.2,1.1s0.1-0.6,0.4-1C369.5,325.6,370.1,325.3,370.1,325.3z M372,332.8c-0.1,0-0.7,0-1,0.2
	c-0.2,0.2-0.2,0.9-0.2,1l0,0l0,0c0-0.1,0.2-0.5,0.5-0.7C371.5,333.1,372,332.8,372,332.8z M372.6,327.9c0,0-0.3,0-0.8,0.2
	c0-0.3-0.2-0.6-0.6-0.8c0.2-0.1,0.4-0.2,0.5-0.3c0,0-0.5,0.1-1,0.3c-0.3,0-0.6,0.2-0.6,0.5c-0.2,0.2-0.6,0.6-0.8,0.9
	c0.2,0,0.6-0.3,0.7-0.5c0,0.4,0.2,0.6,0.6,0.8c-0.2,0.2-0.3,0.4-0.3,0.5c0,0,0.5-0.5,1-0.9C371.8,328.1,372.6,327.9,372.6,327.9z
	 M378.6,325.5L378.6,325.5c-0.1,0.1-0.2,0.2-0.2,0.2c-0.2,0.2-0.2,0.6-0.6,1c-0.7,0.5-1.2,0.4-1.3,0.4c0.2,0.1,0.5,0.2,0.8,0.1
	C378.3,326.8,378.5,325.7,378.6,325.5z"/>
<path fill="#231F20" d="M398.8,342c0.9-0.1,1.1-1.1,0.6-1.5c-0.4-0.4-2.4-1.9-2.9-2.5c-0.2-0.3-0.6-0.4-0.7-0.7
	c-0.3-0.7-0.6-1.7-0.1-2.4c0.1-0.1,0.1-0.1,0.1,0.2c-0.3,1.5,0.7,2.8,0.9,2.2c0.2-0.4,0-1.2,0.1-1.9c0.1-1.1,1.2-3.3,1.6-3.4
	c-0.7-1.3,0.8-2.3,0.8-3.4c0-0.7,0.6,0.9,1.3,1.3c0.7,0.4,1.5-0.7,2.7-1.3c0.3-0.2,0.7-0.3,0.7-0.5c-0.1-0.7-1.5,0.8-2.7,0.9
	c-0.6,0-0.8-0.1-1-0.3c-0.7-0.6,0.1-0.1,1-0.3c0.4-0.1,0.6-0.1,1-0.3c0.5-0.2,1-0.5,1.5-0.6c0.4-0.1,0.3-0.4,0.2-0.5
	c-0.1,0-0.2,0-0.3,0.1c-0.2,0.4-1.3,0.6-1.6,0.7c-0.4,0.1-0.9,0.2-1.5,0.2c-0.9,0-0.7-0.5-1.4-0.9c-0.2-0.1-0.1-0.4,0.1-0.7
	c0.1-0.1,0.5-0.2,0.7-0.5c0,0,0.3-0.3,0.5-0.4c0.1,0,0.1-1.2-0.5-1.2c-0.5,0-0.6,0.4-0.6,0.8c0,0.4,0.2,0.7,0.4,0.7
	c0.3,0,0,0.3-0.1,0.3c-0.2,0.1-0.5-0.9-0.5-1.3c0-0.5,0.3-1.3,0.9-1.3c0.5,0,0.9,0.7,0.9,1.8c0,0.2,0.9-0.1,1.1,0.2
	c0.2,0.2-0.7-2,1.3-2.2c0.5,0.1,1,0.3,1.3,1.5c-0.1,0.1,0.1,1-0.2,1.1c-0.4,0.1-0.7,0-0.4-0.4c0.2-0.4,0-1.4-0.8-1.3
	c-0.8,0.1-0.7,1.5-0.5,1.5s0.8,0.4,1.2,0.5c1.3,0.2,0.3,1,0.5,1.9c0.2,1,0.9,0.7,1.5,3.4c0.1,0.2,0.6,0.3,1.1,2.4
	c0.4,1.9-0.2,3.2,0.9,3.1c0.2,0,0.6-0.1,0.7-0.6c0.4-1.4-0.2-3-0.8-4.1c-0.3-0.6-0.7-1.1-0.8-1.2c0.7,0.4,1.5,1.7,1.7,2.6
	c0.3,1.2,0.5,1.8,0.1,3.1c0.2,0.1,0.8,0.4,0.8,0.6c-0.6-0.5-2.4-0.6-2.5,0.6c-0.3,0-0.5,0-0.7,0.3c-0.7,0.9-0.1,2.6-0.1,3.6
	c-0.1,0.8-0.3,1.6-0.4,2.5c-0.4,0-0.4-0.3-0.3-0.8c0.1-0.4,0.3-0.9,0.3-1.4c0-0.4,0-0.7-0.1-0.8c-0.1-0.1-0.3,0.1-0.5,0.4
	c-0.5,0.8-1.6,1.2-2.6,1.3c-1,0.1-2,0-2.5-0.5c-0.2-0.2-0.5,0.1-0.5,0.1c0,0.1,0.2,0.2,0.3,0.5c0.2,0.4,0.5,1.1-0.1,1.4
	C399.7,343,399.2,342.9,398.8,342L398.8,342z M398.4,341.9c0.4,0.6,1.6,3-0.6,3.3c-0.7,0.1-2-0.4-3.1-0.7c-1.1-0.3-2.1-0.4-2.7-0.6
	c-0.4-0.1-0.5-0.2-0.5-0.4c-0.1-0.4,0.4-1,0.5-1.4c0-0.5-0.2-0.7-0.3-1.1c-0.2-0.4-0.2-0.7-0.1-0.8c0.1-0.1,0.3-0.2,0.6-0.2
	c0.4,0,0.9,0,1.2-0.2c0.5-0.3,0.7-0.9,0.5-1.6c0,0.7-0.2,0.9-0.8,1.3c-0.5,0.3-1.3,0.1-1.7,0.4c-0.5,0.4,0.2,1.4,0.1,2.2
	c0,0.6-0.6,1.2-0.4,1.8c0.3,0.6,1.5,0.6,2.8,0.9c1.9,0.4,2.9,1.1,3.8,1.1c1.2,0,1.4-1.2,3.4-1.3c0.6,0,1.1,0,1.7-0.1
	c0.6,0,1.3,0,1.9,0c1.3,0,0.9,0.7,1.7,1.1c0.7,0.4,2,0.2,2.3-0.1c0.4-0.4,1.5-1.3,2.4-1.8c1.1-0.5,3.6-1.5,1.7-2.6
	c-0.4-0.3-1.4-0.5-1.5-2.5c-0.4,0.3-0.3,2.1,0.7,2.5c1.2,0.4,1.9,1.1-0.3,1.8c-1.5,0.5-1.7,0.6-2.9,1.6s-2.9,0.6-2.6-1.5
	c0.2-1.1,0.2-1.9,0-2.9c-0.1-0.5-0.2-1-0.1-1.4c0.2-0.8,0.6-1,1-0.3c0.3,0.5,0.4,1,1.3,1.1c1.5,0.1,1.8-1.4,2.2-1.5
	c0.3,0,0.6-0.9,0.4-2.4c-0.3-1.5-1.2-4-2.3-5.2c-1-1-1.6-1.9-2-3.2c-0.3-1.1-0.5-2.1-0.4-3.1c0.1-1.3-0.6-3.1-1.8-4
	c-0.7-0.5-1.9-0.8-2.9-0.8c-0.6,0-1.1,0.1-1.5,0.3c-1.7,0.9-1.9,2.2-1.9,3.8c0,1.4,0.1,3,0.2,4.6c-0.2,0.7-1.2,2-1.8,2.9
	c-0.9,0.8-1.3,2.5-1.8,3.9c-0.3,0.8-0.8,1.1-0.8,2.1c0,0.3,0,1,0.3,0.8C395.3,337,396.5,338.9,398.4,341.9L398.4,341.9z
	 M403.6,321.5c-0.1,0.2-0.3,0.3-0.1,0.4c0.1,0.1,0.2-0.2,0.5-0.3c0.1,0,0.4,0,0.5-0.2c0-0.1-0.2-0.2-0.3-0.3
	c-0.1-0.1-0.2-0.2-0.4-0.2C403.5,321,403.6,321.3,403.6,321.5L403.6,321.5z M405.3,327.4c0.1-0.1,0.2,0.2,0.4,0.4
	c0.2,0.1,0.4,0,0.5,0.3c0,0.2-0.1,0.4-0.3,0.4C405.7,328.4,405,327.7,405.3,327.4L405.3,327.4z M400.6,325.5c-0.5,0-0.5,0.3-0.3,0.3
	C400.4,325.8,400.3,325.6,400.6,325.5L400.6,325.5z M399.8,324.7c0.1,0,0.1,0.1,0.1,0.2c0,0.2,0,0.3,0.1,0.3c0,0,0,0,0.1-0.1
	c0.1-0.4-0.1-0.6-0.2-0.7C399.7,324.4,399.7,324.7,399.8,324.7L399.8,324.7z M403.2,324.5c0.1,0,0.2,0.2,0.3,0.5c0,0,0.2,0,0.2-0.1
	c0-0.4-0.3-0.5-0.4-0.5C403.1,324.4,403.1,324.5,403.2,324.5L403.2,324.5z M401.5,325.6c0.4-0.2,0.6,0.1,0.4,0.2
	C401.8,325.8,401.8,325.5,401.5,325.6L401.5,325.6z M396.4,332.8c-0.2,0,0.1-0.2,0.2-0.4s0.1-0.5,0.2-0.4c0.1,0,0.1,0.2,0,0.4
	C396.6,332.7,396.4,332.8,396.4,332.8L396.4,332.8z"/>
<path fill="#231F20" d="M181.1,399.6v19.1h25.5v-19.1H181.1z M188.2,404.7l-4.3,1.9v-1l3.1-1.3l0,0l-3.1-1.3v-1l4.3,1.9
	C188.2,403.9,188.2,404.7,188.2,404.7z M193.9,407.8h-5.1v-0.9h5.1V407.8z"/>
<path fill="#231F20" d="M260,374l-8.4-2.3l2.3,8.4l1.8-1.8l7.1,7.1l2.5-2.5l-7.1-7.1L260,374z M240.4,366.8l8.4,2.3l-2.3-8.4
	l-1.8,1.8l-6.7-6.7l-2.5,2.5l6.7,6.7L240.4,366.8z M242.5,376l-6.9,6.9l2.5,2.5l6.9-6.9l1.9,1.9l2.3-8.4l-8.4,2.3L242.5,376z
	 M258.3,365.1l6.9-6.9l-2.5-2.5l-6.9,6.9l-1.9-1.9l-2.3,8.4l8.4-2.3L258.3,365.1z"/>
<path fill="#231F20" d="M145.3,380c-3.3,0-6-2.7-6-6l0,0c0-2.7,1.7-4.9,4.1-5.7l0,0c0.1-2.3,1.9-4.1,4.2-4.1l0,0
	c0.7,0,1.4,0.2,2,0.5l0,0c1.3-2.1,3.6-3.5,6.2-3.5l0,0c3.9,0,7.2,3.2,7.2,7.1l0,0c2.4,0.8,4.1,3,4.1,5.7l0,0c0,3.3-2.7,6-6,6l0,0
	H145.3L145.3,380z M161.9,370.1c-0.5-0.1-0.9-0.6-0.8-1.1l0,0c0-0.2,0-0.3,0-0.5l0,0c0-2.9-2.4-5.2-5.3-5.2l0,0
	c-2.2,0-4.2,1.4-4.9,3.4l0,0c-0.1,0.3-0.4,0.6-0.7,0.6l0,0c-0.3,0.1-0.7-0.1-0.9-0.3l0,0c-0.4-0.5-1-0.7-1.6-0.7l0,0
	c-1.2,0-2.2,1-2.2,2.2l0,0c0,0.1,0,0.3,0,0.4l0,0c0,0.3,0,0.5-0.2,0.8l0,0c-0.2,0.2-0.4,0.4-0.7,0.4l0,0c-1.9,0.3-3.4,1.9-3.4,3.9
	l0,0c0,2.2,1.8,4,4,4l0,0h15.9c2.2,0,4-1.8,4-4l0,0C165.1,372.1,163.7,370.4,161.9,370.1L161.9,370.1"/>
<path fill="#231F20" d="M473.2,412.1c-0.1-0.3-0.2-0.6-0.2-0.9c0.1-1.5,1.8-2.4,3-3c1.3-0.7,2.6-1.3,3.9-2c1.6-0.8,3.6-1.8,4-3.8
	c0.1-0.4,0.1-0.8,0.1-1.1c-0.2-2.9-2.8-4.8-5-6.1c-2-1.1-4.3-1.9-6.5-2.4c-2.1-0.5-4.3-0.9-6.5-1c-1.6-0.1-3.1,0.1-4.7,0.3
	c-1.7,0.3-3.5,0.6-5.1,1.2c-0.6,0.2-1.5,0.6-1.8,1.2c-0.1,0.2-0.3,0.6-0.1,0.8c0.1,0.1,0.2,0.2,0.3,0.2c0.2,0.1,0.4,0.3,0.6,0.4
	c1.2,0.7,2.5,1.4,3.9,1.8c0.5,0.2,1,0.4,1.6,0.5c0.2,0.1,0.3,0.1,0.5,0.1c0.1,0,0.1,0.1,0.2,0c0.1,0,0.1-0.1,0.2-0.2
	s0.3-0.3,0.4-0.4c0.4-0.4,0.8-0.7,1.3-0.9c0.4-0.2,0.7-0.3,1.1-0.5c2.1-0.6,5.1-0.5,6.3,1.7c0.1,0.2,0.2,0.4,0.2,0.6
	c0.1,0.3,0.1,0.6,0.1,0.9c-0.1,0.8-0.7,1.6-1.3,2.2c-1.2,1.2-2.6,2.2-3.8,3.4c-0.6,0.6-1.3,1.2-1.6,2c-0.2,0.4,0,0.8,0.1,1.2
	c0.2,0.8,0.6,1.6,0.9,2.4c0.1,0.2,0.2,0.5,0.3,0.7c0,0.1,0.1,0.3,0.2,0.4c0.2,0.2,0.6,0.3,0.9,0.3c1,0.1,2,0,3,0
	c0.8,0,1.6,0,2.4-0.1C472.3,412.3,472.8,412.3,473.2,412.1 M471.2,416.1c-1.1,0.1-2.2,0.3-3.1,0.9c-0.8,0.4-1.1,1.3-0.7,2.1
	c0.1,0.2,0.3,0.5,0.5,0.7c0.6,0.5,1.4,0.9,2.1,1.1c1.3,0.5,2.6,0.7,4,0.7c0.4,0,0.9,0,1.3-0.1c0.2,0,0.4-0.1,0.7-0.1
	c0.7-0.2,1.5-0.3,2.1-0.8c0.4-0.3,0.8-0.7,0.8-1.2c0-0.2,0-0.4,0-0.5c0-0.2-0.1-0.4-0.3-0.6c-0.2-0.2-0.4-0.4-0.6-0.6
	c-0.5-0.4-1.1-0.6-1.7-0.9c-1-0.4-2.1-0.6-3.2-0.7C472.5,416.1,471.8,416,471.2,416.1L471.2,416.1z"/>
<path fill="#231F20" d="M232.8,406v-4.9c0-4.9-4-8.9-8.9-8.9c-4.9,0-8.9,4-8.9,8.9v4.9h-2.1v15.1h21.9V406H232.8z M218.6,401.1
	c0-3,2.4-5.4,5.4-5.4c3,0,5.4,2.4,5.4,5.4v4.9h-10.8L218.6,401.1L218.6,401.1z M226.2,417.6h-4.5l1.2-3.7c-0.8-0.4-1.3-1.2-1.3-2.1
	c0-1.3,1.1-2.4,2.4-2.4s2.4,1.1,2.4,2.4c0,0.9-0.5,1.7-1.3,2.1L226.2,417.6z"/>
<path fill="#231F20" d="M266.1,404.6c-0.9-5.2-5.5-9.1-10.9-9.1v4c3.9,0,7.1,3.2,7.1,7.1c0,3.9-3.2,7.1-7.1,7.1v4
	c5.4,0,10-3.9,10.9-9.1h4.7v-4H266.1z M261.4,406.6c0-3.4-2.8-6.2-6.2-6.2c-2.7,0-5.1,1.8-5.9,4.2h-6.8v4h6.8
	c0.8,2.5,3.1,4.2,5.9,4.2C258.6,412.8,261.4,410,261.4,406.6z"/>
<path fill="#231F20" d="M288.1,394.2l-10.8,6.2v12.5l10.8,6.2l10.8-6.2v-12.5L288.1,394.2z M288.1,398.2l6.3,3.7l-6.3,3.7l-6.3-3.7
	L288.1,398.2z M297.6,401.8l-9,5.2v10.4c0,0.3-0.2,0.5-0.5,0.5c-0.3,0-0.5-0.2-0.5-0.5V407l-9-5.2c-0.2-0.1-0.3-0.4-0.2-0.7
	c0.1-0.2,0.4-0.3,0.7-0.2l9,5.2l9-5.2c0.2-0.1,0.5-0.1,0.7,0.2C297.9,401.3,297.9,401.6,297.6,401.8z"/>
<path fill="#231F20" d="M312.2,399.4c-0.1-0.1-0.2-0.1-0.3-0.1s-0.2,0.1-0.3,0.1c-0.2,0-0.3,0.1-0.3,0c-0.1-0.1-0.3-0.1-0.4-0.1
	c0,0.1-0.1,0.1,0,0.2c0.1,0.1,0.1,0.2,0.2,0.2c0.1,0,0.3,0,0.3,0.1s0.1,0.1,0.2,0.1s0.3-0.1,0.3-0.1c0-0.1,0.3-0.1,0.3-0.1
	S312.3,399.5,312.2,399.4z M321.9,411.1c-0.2,0-0.2,0.2-0.3,0.3c-0.1,0.1-0.3,0.3-0.3,0.2c-0.1,0-0.3,0.1-0.2,0.3
	c0.1,0.2,0.1,0.4,0,0.5c-0.1,0.1,0.1,0.3,0.1,0.5c0,0.1,0,0.2,0.2,0.2s0.2-0.1,0.3-0.2c0.1-0.2,0.1-0.3,0.2-0.5
	c0.1-0.1,0.1-0.4,0.2-0.5c0-0.1,0.1-0.3,0.1-0.5C322.1,411.3,322,411.1,321.9,411.1z M326.5,407.8c-0.1,0-0.2,0.5,0,0.5
	c0.2,0.1,0.2-0.2,0.2-0.3C326.7,408,326.7,407.8,326.5,407.8z M313.7,401c0.1,0.1,0.4,0.1,0.3,0.2s-0.3,0.2-0.3,0.3s0.2,0.2,0.2,0.2
	s-0.1,0.1,0,0.1c0.1,0,0.1-0.1,0.2-0.1s0.3,0.1,0.4,0.1s0.3-0.1,0.3-0.2s-0.1-0.2-0.3-0.3c-0.1-0.1-0.2-0.3-0.3-0.3
	c-0.1-0.1,0.1-0.2,0-0.3c-0.1-0.1-0.2-0.1-0.3-0.1c-0.1-0.1-0.2,0-0.3,0.1c-0.1,0.1-0.1,0-0.2,0s-0.1,0.2,0,0.2
	C313.5,400.9,313.6,401,313.7,401z M313.1,401.6c0.1,0,0.2-0.1,0.3-0.1s0.2-0.1,0.2-0.2c0-0.1,0-0.2-0.1-0.3s-0.1-0.1-0.2-0.1
	s-0.1,0.1-0.2,0.1s-0.2,0-0.1,0.1c0,0.1,0.1,0.2,0,0.2C312.9,401.4,313,401.6,313.1,401.6z M316.5,403.7c0.1,0,0.1,0.1,0.2,0.1
	s0.2,0,0.2-0.1c-0.1-0.1-0.2-0.1-0.2-0.1S316.5,403.6,316.5,403.7C316.3,403.5,316.5,403.6,316.5,403.7z M316,403.3
	c0.1-0.1-0.1-0.2-0.1-0.2c-0.1,0-0.2,0.2-0.1,0.3C315.8,403.4,315.9,403.4,316,403.3z M322.6,398.7c0.1,0.1,0.3,0.1,0.4,0
	c0.1-0.1,0-0.2,0-0.2c-0.1,0-0.1-0.1,0.1-0.2c0.2-0.1,0.3-0.2,0.5-0.2s0.6,0,0.8,0s0.4-0.2,0.4-0.3c0.1-0.1-0.2-0.2-0.3-0.1
	c-0.1,0.1-0.4,0.1-0.5,0.1s-0.7,0.1-0.8,0.1c-0.1,0-0.2,0.2-0.4,0.2c-0.2,0.1-0.4,0.2-0.5,0.2s-0.2,0.2-0.1,0.2
	C322.3,398.6,322.5,398.6,322.6,398.7z M315,403.3c0-0.1,0-0.2-0.1,0C314.8,403.3,315,403.4,315,403.3z M319.6,409.2
	c0.1,0.1-0.1,0.4-0.3,0.4c-0.1,0-0.1-0.3,0-0.4C319.4,409.1,319.6,409.2,319.6,409.2z M319.1,400.1c0.1-0.2,0.4,0,0.4,0.1
	C319.4,400.3,319.1,400.2,319.1,400.1z M318.7,402.9c-0.1,0,0-0.2,0.1-0.2c0.1-0.1,0.2-0.2,0.2-0.3c0.1-0.1,0.2-0.1,0.2-0.1
	c0.1,0,0.2,0.2,0.2,0.3c0,0.1,0.2,0,0.2-0.1c0.1,0,0.1-0.1,0.1-0.2c0-0.1,0.1-0.1,0.3-0.1c0.2,0,0,0.1-0.1,0.1s0,0.1,0.1,0.1
	c0.2,0.1,0.3,0.2,0.5,0.3c0.2,0.1,0.2,0.3,0.1,0.3s-0.4,0.1-0.5,0c-0.1,0-0.3-0.1-0.4-0.2c-0.2,0-0.4,0-0.4,0.1s-0.3,0-0.4,0
	S318.7,403,318.7,402.9C318.7,403.2,318.8,402.9,318.7,402.9z M322.2,402.7c0.1,0.1,0.1,0.1,0.2,0.2s0.1,0.1,0.2,0.1
	c0.1,0.1-0.2,0.1-0.1,0.2c0.1,0.1,0.2,0.4,0.2,0.5s-0.3,0.1-0.4,0.1s-0.4-0.1-0.4-0.1c-0.1,0-0.1-0.3,0-0.3s0.1,0,0.3-0.1
	c0.1-0.1-0.2-0.2-0.3-0.2s-0.3-0.3-0.3-0.4c-0.1-0.1,0-0.2,0.1-0.3c0.1-0.1,0.3,0.1,0.4,0c0.1-0.1,0.2-0.1,0.2-0.2
	c0,0,0.3,0,0.3,0.1c0,0.1,0.2,0.2,0.1,0.2s-0.3,0.1-0.4,0s-0.3,0-0.3,0.2C322.1,402.8,322.1,402.6,322.2,402.7z M329.3,408
	L329.3,408c0,0.2,0,0.4-0.1,0.6l0,0c-0.1-0.1-0.3-0.1-0.3-0.1c-0.2,0,0.2,0.3,0.3,0.3c0,0,0,0,0.1,0.1c-1,5.3-5.7,9.3-11.3,9.3
	c-4.1,0-7.7-2.2-9.8-5.4c0.1,0,0.2,0,0.3-0.1c0.1-0.1,0.1-0.2,0.2-0.3c0.1-0.1,0.2-0.2,0.1-0.3c0-0.1,0.1-0.3,0.1-0.4
	s-0.1-0.3,0.1-0.4c0.2-0.1,0.4-0.4,0.4-0.4c0-0.1,0.2-0.3,0.2-0.5c0-0.1-0.2-0.3-0.2-0.3c-0.1,0-0.3,0-0.4-0.2
	c-0.1-0.1-0.3-0.2-0.4-0.2s-0.2,0.1-0.3,0c-0.1-0.1-0.3-0.1-0.3-0.2c-0.1-0.1-0.2-0.1-0.3-0.1c-0.1,0-0.1-0.1-0.2,0.1
	c-0.1,0.2,0,0.2-0.2,0.2c-0.2,0,0,0,0.1-0.2c0.1-0.2,0-0.2-0.1-0.2s0,0.1-0.2,0.2c-0.2,0-0.2-0.1-0.1-0.1s0.4-0.1,0.4-0.2
	s0-0.2-0.1-0.2s-0.1-0.1-0.2-0.3c-0.1-0.1-0.2-0.2-0.3-0.2c-0.1-0.6-0.1-1.2-0.1-1.8c0-2.8,1-5.4,2.8-7.5c0,0,0,0,0.1,0
	s0.3,0,0.5-0.1c0.2,0,0.4-0.2,0.5-0.2s0.2,0,0.2,0c-0.1-0.1-0.1-0.2-0.2-0.2s0-0.2,0-0.2s0.2,0,0.2,0.1c0,0.1,0,0.2,0.2,0.2
	c0.2,0,0.1-0.2,0.1-0.2s-0.1-0.1-0.1-0.2s0-0.1,0.1-0.2c0.2,0,0.4,0.1,0.4-0.1c0-0.1,0-0.3,0-0.4c0-0.1,0.1-0.1,0.1-0.2
	c-0.1,0-0.1,0-0.2-0.1s0-0.2,0.1-0.3l0.1-0.1c1.9-1.3,4.2-2.1,6.6-2.1c3.2,0,6.1,1.3,8.2,3.5v0.1c-0.1,0-0.2,0.1-0.2-0.1
	c0-0.1,0-0.3-0.1-0.2c-0.1,0.1-0.1,0.1-0.1,0.2s0.1,0.1,0.1,0.2c0,0.1,0,0.2,0,0.2s0.1-0.1,0.2-0.1s0.3-0.1,0.3,0s0.1,0.2,0,0.2
	c-0.1,0.1-0.3,0-0.3-0.1s-0.1-0.1-0.2,0s-0.3,0.3-0.3,0.3l-0.3,0.1c0,0,0.1-0.2,0.2-0.2c0.1-0.1,0.2-0.2,0.1-0.2l-0.1-0.3
	c0-0.1,0.1-0.2,0-0.2c-0.1-0.1-0.2-0.1-0.3-0.2c-0.1,0-0.2,0.2-0.3,0.2c-0.1,0.1-0.1,0.1-0.2,0.1s-0.2,0.2,0,0.3
	c0.2,0.1,0.3,0.2,0.2,0.2c-0.1,0.1-0.3,0-0.3,0s-0.2-0.1-0.3-0.1c-0.1,0-0.2-0.1-0.3-0.1c-0.1,0-0.3,0-0.4,0
	c-0.1,0.1-0.2,0.2-0.3,0.2c-0.1-0.1-0.1-0.1-0.2-0.1c-0.1,0.1-0.3,0-0.4,0c-0.1,0.1,0,0.1-0.3,0c-0.2-0.1-0.2,0.1-0.4,0.1
	c-0.2,0-0.4,0-0.4,0c-0.1,0.1-0.2,0.2-0.2,0.1s0.1-0.2,0.1-0.3c-0.1-0.1-0.3,0-0.4,0v0.2c0,0,0.1,0.3,0,0.2c-0.1,0-0.1-0.2-0.1-0.2
	c-0.1,0-0.2,0.1-0.2,0.1s-0.2,0-0.2,0.1s0,0.2-0.1,0.2s-0.1,0.1-0.3,0c-0.1-0.1-0.1,0-0.2,0c0,0-0.2,0.1-0.2,0s0-0.2-0.1-0.2
	c-0.1-0.1,0-0.1,0.1,0c0.2,0.1,0.3,0.1,0.6,0c0.3-0.1,0.4-0.1,0.3-0.2c-0.1,0-0.2-0.1-0.4-0.1s-0.4,0-0.7-0.1s-0.3-0.1-0.5-0.2
	c-0.1,0-0.8-0.1-1.1-0.1c-0.3,0.1-1.2,0.3-1.2,0.3c-0.1,0-0.1,0.2-0.3,0.3c-0.2,0.1-0.5,0.4-0.7,0.5c-0.2,0.1-0.5,0.3-0.5,0.3
	s0.1,0.2,0.1,0.3c0,0.1,0,0.2,0.2,0.3c0.1,0,0.4,0,0.4,0c0-0.1,0.2-0.2,0.2-0.1c0,0.1,0.1,0.3,0.1,0.4s0,0.2,0.1,0.1
	c0.1,0,0.6-0.1,0.6-0.1s0.2-0.1,0.1-0.2c0-0.1,0.2-0.2,0.2-0.3c0,0,0.2-0.2,0-0.2c-0.2-0.1-0.3-0.1-0.1-0.2c0.2-0.2,0.3,0,0.5-0.2
	c0.2-0.2-0.1-0.3,0.2-0.3c0.2,0,0.5,0,0.4,0.1c-0.1,0.1-0.3,0.2-0.5,0.3c-0.2,0.1-0.1,0.2-0.1,0.3c0.1,0.1,0.1,0.3,0.2,0.2
	c0.1,0,0.3-0.1,0.4-0.1c0.1,0,0.4,0,0.4,0s0.2,0.2,0.1,0.2s-0.2,0-0.4,0c-0.2,0-0.5,0-0.5,0.1c0,0,0.3,0.1,0.2,0.2s-0.2,0-0.3,0
	c-0.1,0-0.2,0.2-0.2,0.3s0.1,0.3-0.1,0.2c-0.2-0.1-0.3-0.1-0.4,0c-0.1,0-0.2,0.1-0.3,0.1c-0.1,0-0.1-0.1-0.2-0.1c-0.2,0-0.2,0-0.2,0
	h-0.1c0,0-0.1-0.1-0.1-0.2s0-0.2,0-0.2c-0.1,0-0.3,0-0.3,0.1s-0.1,0.2,0,0.3s0.2,0.2,0.1,0.2s-0.3-0.1-0.4,0
	c-0.1,0.1-0.3,0.2-0.3,0.2s-0.3,0-0.3,0.1s0,0.2-0.1,0.2s-0.3,0-0.4,0.1c-0.2,0-0.1,0.1-0.3,0.1c-0.2,0-0.2,0.1,0,0.1
	s0.4,0.1,0.4,0.2c0,0.1,0,0.2-0.1,0.4c0,0.1-0.3,0-0.5,0s-0.5-0.1-0.6,0s-0.1,0.3-0.1,0.4c0,0.1,0,0.2-0.1,0.2s-0.1,0.2,0,0.2
	c0.1,0.1,0.1,0.2,0.2,0.2s0.2,0,0.3,0c0.1,0.1,0.1,0.2,0.2,0.2c0,0,0.1-0.2,0.2-0.2s0.2,0,0.3,0c0.1,0,0.2-0.1,0.3-0.2
	c0.1-0.1,0-0.1,0-0.1c0-0.1,0.1-0.2,0.2-0.3c0.1-0.1,0.3,0,0.3-0.1s0.1-0.3,0.2-0.3c0.1,0,0.2,0.1,0.3,0.1c0.1,0,0.3-0.1,0.3-0.2
	c0,0,0.2,0,0.3,0.1c0,0.1,0.2,0.3,0.3,0.3c0.1,0,0.4,0.1,0.4,0.2c0.1,0,0.1,0.2,0.2,0.3c0,0.1,0.1,0.1,0.1,0s-0.1-0.3,0-0.2
	c0.1,0,0.2,0,0.2,0s-0.2-0.2-0.3-0.2c-0.1,0-0.3-0.1-0.3-0.2c-0.1-0.1-0.3-0.2-0.3-0.3c0-0.1,0.2-0.1,0.3,0.1
	c0.1,0.1,0.4,0.2,0.4,0.3c0.1,0.1,0.2,0.1,0.3,0.2c0,0.1,0.2,0.2,0.2,0.3s0.2,0.3,0.2,0.4s0.2,0,0.2-0.1c0.1-0.1,0.2-0.1,0.2-0.2
	s-0.2-0.2-0.2-0.2c-0.1,0,0.1-0.1,0.2-0.1c0.1-0.1,0.2-0.1,0.2-0.1c0.1,0.1,0,0.4,0.1,0.4s0.3,0.1,0.3,0.2c0.1,0.1,0.3,0.1,0.3,0.1
	s0.2,0,0.3,0c0,0,0.2,0,0.3,0c0.1,0,0.2-0.1,0.2,0.1c0,0.2-0.1,0.4-0.2,0.5s-0.1,0.2-0.2,0.2s-0.1,0-0.2,0c0-0.1-0.1-0.1-0.2-0.1
	c-0.2,0-0.3,0-0.5,0.2c-0.1,0.2-0.2,0.2-0.2,0.1c0-0.1,0.4-0.3,0.3-0.3c0-0.1-0.4,0-0.5,0c-0.2,0-0.3-0.1-0.4-0.1s-0.3,0.1-0.4,0.3
	c-0.1,0.1-0.2,0-0.3,0s-0.3-0.2-0.3-0.2s-0.2-0.1-0.3-0.1c-0.1,0-0.3-0.2-0.3-0.2s-0.2-0.1-0.1-0.2c0.1,0,0.2,0.1,0.1-0.2
	c-0.1-0.3-0.3-0.2-0.4-0.2s-0.7,0-0.8,0c-0.1,0-0.4,0.1-0.5,0.2s-0.3,0.1-0.4,0.1s-0.3-0.1-0.4,0c-0.2,0.1-0.3,0.2-0.3,0.2
	s-0.2,0.1-0.2,0.3c-0.1,0.2,0,0.4-0.1,0.4c-0.1,0.1-0.4,0.2-0.5,0.3c-0.1,0.1-0.2,0.5-0.4,0.6c-0.1,0.2,0,0.3,0,0.4s0.1,0.3,0,0.5
	c-0.1,0.2-0.1,0.3-0.2,0.3s0.1,0.1,0.1,0.2s-0.1,0.3,0.1,0.4c0.2,0.1,0.4,0.2,0.4,0.4c0.1,0.2,0.4,0.4,0.4,0.4s0.2,0.2,0.3,0.3
	c0.1,0.1,0.2,0,0.2,0c0-0.1,0.2-0.1,0.4-0.1c0.2,0,0.3,0,0.5,0c0.2,0,0.4-0.1,0.4-0.2c0.1,0,0.3-0.2,0.4-0.1
	c0.2,0.1,0.1,0.2,0.2,0.3c0.1,0.1,0.2,0,0.4-0.1c0.1-0.1,0.1-0.1,0.2,0c0.1,0.1,0.2,0.2,0.1,0.3c-0.1,0.1-0.1,0.3-0.1,0.5
	c-0.1,0.2-0.1,0.2,0.1,0.3c0.1,0.1,0.4,0.5,0.5,0.6s0,0.3,0.1,0.5s0.2,0.3,0.1,0.3c-0.1,0.1-0.3,0.2-0.3,0.5c0,0.3,0.1,0.4,0.1,0.5
	s0.2,0.3,0.2,0.4c0.1,0.1,0.1,0.3,0.2,0.4c0,0.1,0,0.3,0,0.4c0.1,0.1,0.1,0.2,0.2,0.3c0.1,0.1,0.2,0.3,0.2,0.3s0,0.1,0.1,0.2
	c0,0.1,0,0.2,0.2,0.3c0.1,0.1,0.2,0.1,0.3,0c0.1-0.1,0.4-0.1,0.5-0.1c0.2,0,0.4-0.1,0.5-0.2c0.2-0.1,0.4-0.4,0.5-0.5
	s0.3-0.3,0.3-0.4c0-0.1-0.1-0.2,0-0.3c0.1-0.1,0.3-0.2,0.4-0.2c0-0.1-0.1-0.4-0.1-0.5s0.1-0.2,0.2-0.3c0.1-0.1,0.4-0.2,0.5-0.3
	c0.1-0.1,0.2-0.3,0.2-0.4c0-0.2-0.1-0.4,0-0.5s0-0.2-0.1-0.3c-0.1-0.1-0.1-0.4-0.1-0.5s0-0.3,0.1-0.3s0.2-0.3,0.3-0.4
	c0.1-0.1,0.4-0.5,0.5-0.5c0.1,0,0.4-0.2,0.4-0.3s0.4-0.5,0.4-0.6c0-0.1,0.2-0.4,0.1-0.5c-0.1-0.1-0.6,0.1-0.6,0.1
	c-0.1,0-0.2,0.1-0.4,0.1c-0.2,0-0.1-0.2-0.1-0.3c0-0.1-0.2-0.4-0.3-0.4c-0.1,0-0.2-0.2-0.3-0.3c-0.1-0.2-0.2-0.3-0.3-0.5
	c-0.1-0.1-0.2-0.4-0.3-0.6c-0.1-0.2-0.2-0.4-0.3-0.6c0,0,0-0.1-0.1-0.1c0.1,0,0.3-0.1,0.3,0s0.2,0.3,0.2,0.4c0,0.1,0.2,0.1,0.2,0.2
	s0.1,0.4,0.2,0.5c0.1,0,0.3,0.2,0.3,0.3c0,0.1,0.1,0.2,0.1,0.4c0,0.2,0.1,0.4,0.2,0.5c0.1,0,0.4-0.1,0.5-0.1s0.5-0.2,0.6-0.3
	c0.2,0,0.2-0.1,0.4-0.2c0.2,0,0.3-0.2,0.5-0.3c0.1-0.1,0.3-0.4,0.3-0.4c0.1-0.1,0.2-0.2,0.1-0.3c-0.1-0.1-0.3-0.3-0.4-0.3
	c-0.1,0-0.1-0.2-0.2-0.2s-0.1,0.1-0.2,0.2c-0.1,0.1-0.3,0.2-0.3,0.2c-0.1,0,0-0.1-0.1-0.2c-0.1-0.1-0.2-0.1-0.2-0.2
	s-0.3-0.3-0.3-0.4s0.2-0.3,0.3-0.2c0.1,0.1,0.1,0.3,0.3,0.4c0.2,0.1,0.3,0.2,0.4,0.2s0.3-0.1,0.3-0.1c0.1,0,0.2,0.3,0.3,0.3
	c0.1,0,0.5,0.1,0.6,0.1c0.1,0,0.3,0,0.4-0.1c0.1-0.1,0.1-0.1,0.2-0.1s0.2,0.2,0.3,0.3c0.1,0,0.3,0,0.2,0.2c0,0.2,0.1,0.3,0.2,0.3
	s0.3-0.2,0.3-0.2s0,0.3,0,0.4c0,0.1,0.1,0.5,0.1,0.5s0.2,0.4,0.2,0.5s0.3,0.4,0.3,0.5s0,0.3,0.1,0.3s0.2-0.2,0.2-0.3
	c0.1-0.1,0.1-0.3,0.2-0.4c0-0.1,0-0.4,0-0.4c0-0.1,0.1-0.2,0.3-0.2c0.2-0.1,0.3-0.3,0.5-0.4s0.1-0.3,0.4-0.3c0.3,0,0.3,0,0.4-0.1
	s0.2-0.1,0.2,0s0.3,0.3,0.3,0.4s0.1,0.2,0.1,0.3c0,0.2,0,0.3,0.1,0.3s0.2-0.2,0.2-0.2s0.3-0.2,0.3,0s0,0.4,0,0.5s0,0.1,0.1,0.2
	c0,0.1,0,0.1,0,0.2C329.2,407.8,329.2,408,329.3,408z M317.8,393c-7.5,0-13.6,6.1-13.6,13.6c0,7.5,6.1,13.6,13.6,13.6
	s13.6-6.1,13.6-13.6C331.3,399.1,325.3,393,317.8,393z"/>
<path fill="#231F20" d="M196.2,369c0-0.2,0-0.4,0-0.6c0-3.5-2.8-6.2-6.2-6.2c-2.7,0-5,1.7-5.8,4.1c-0.6-0.6-1.4-1.1-2.4-1.1
	c-1.8,0-3.2,1.4-3.2,3.2c0,0.2,0,0.4,0.1,0.6c-2.4,0.4-4.2,2.4-4.2,4.9c0,2.8,2.2,5,5,5h15.9c2.8,0,5-2.2,5-5
	C200.2,371.5,198.5,369.4,196.2,369z"/>
<path fill="#231F20" d="M206.8,357.3v26.5h22.5v-26.5H206.8z M227.8,382.4h-19.5c0-7.5,0-16.1,0-23.6c7.5,0,12,0,19.5,0V382.4z
	 M210,359.8c0,0.4-0.3,0.7-0.7,0.7c-0.4,0-0.7-0.3-0.7-0.7c0-0.4,0.3-0.7,0.7-0.7C209.7,359.1,210,359.4,210,359.8z M210,381.4
	c0,0.4-0.3,0.7-0.7,0.7c-0.4,0-0.7-0.3-0.7-0.7c0-0.4,0.3-0.7,0.7-0.7C209.7,380.7,210,381,210,381.4z M217.7,370.8
	c-1.9,0-3.3,1.5-3.3,3.3s1.5,3.4,3.3,3.4s3.4-1.5,3.4-3.4S219.6,370.8,217.7,370.8z M227.5,359.8c0,0.4-0.3,0.7-0.7,0.7
	s-0.7-0.3-0.7-0.7c0-0.4,0.3-0.7,0.7-0.7C227.2,359.1,227.5,359.4,227.5,359.8z M227.5,381.4c0,0.4-0.3,0.7-0.7,0.7
	s-0.7-0.3-0.7-0.7c0-0.4,0.3-0.7,0.7-0.7C227.2,380.7,227.5,381,227.5,381.4z M217.8,366.4c-4.2,0-7.5,3.4-7.5,7.5
	c0,4.2,3.4,7.5,7.5,7.5c4.2,0,7.5-3.4,7.5-7.5C225.3,369.8,222,366.4,217.8,366.4z M217.8,367.4c3.6,0,6.5,2.9,6.5,6.5
	s-2.9,6.5-6.5,6.5s-6.5-2.9-6.5-6.5S214.2,367.4,217.8,367.4z"/>
<path fill="#231F20" d="M352.1,396.9l0.4,1.2c1.5,0.6,2.6,1.4,2.6,2.6c0,2.4-4.3,3.5-8.3,3.5c-4,0-8.3-1.1-8.3-3.5
	c0-1.3,1.2-2.2,2.9-2.7l0.4-1.2c-2.4,0.6-4.3,1.9-4.3,3.9v2.3c0,1.2,0.7,2.2,1.8,2.8l0.4,9.3c0,1.4,3.3,2.5,7.3,2.5
	c4,0,7.3-1.1,7.3-2.5l0.4-9.5c0.9-0.7,1.4-1.5,1.4-2.6v-2.3C356.1,398.8,354.4,397.6,352.1,396.9z M342.4,415.3
	c-0.5-0.3-1-0.8-1.2-1.2c-1-2.8-0.7-4.9-0.5-7.5c0.7,0.3,1.6,0.5,2.5,0.6c-0.2,2.7-0.4,4.9,0,7.8
	C343.2,415.5,342.9,415.6,342.4,415.3z M348.5,415.5c0,0.4-0.7,0.9-1.5,0.9s-1.5-0.4-1.5-0.9c-0.1-3,0-5.3,0.1-8c0.4,0,0.8,0,1.2,0
	c0.5,0,1.1,0,1.7-0.1C348.6,410.2,348.7,412.5,348.5,415.5z M352.8,414.1c-0.1,0.4-0.7,1-1.2,1.2c-0.5,0.3-0.8,0.2-0.8-0.3
	c0.4-2.9,0.2-5.2,0-7.9c0.9-0.2,1.7-0.4,2.4-0.7C353.5,409.1,353.8,411.3,352.8,414.1z M342.7,400.7c0.5,0.2,1.1-0.1,1.3-0.6l0,0
	l0.8-2.3h4.6l0.8,2.3c0.1,0.4,0.5,0.7,0.9,0.7c0.1,0,0.2,0,0.3-0.1c0.5-0.2,0.8-0.7,0.6-1.3l-1-3c-0.1-0.4-0.5-0.7-0.9-0.7h-6
	c-0.4,0-0.8,0.3-0.9,0.7l-1,3C341.9,400,342.1,400.5,342.7,400.7z"/>
<path fill="#231F20" d="M387.1,393.7h-7.4l-0.4,0.4v14.7l0.2,1.9h-0.3v0.2H379v-0.2h-0.5v0.2h-0.2v-0.3h-0.4v0.2H377l-1.6-0.3v-0.7
	h0.7l0.2-1.2h2.2c0.2,0,0.2-0.2,0.2-0.2v-10.7c0-0.2-0.1-0.2-0.2-0.2h-13.7c-0.2,0-0.2,0.2-0.2,0.2v10.8c0,0.2,0.2,0.2,0.2,0.2h2.4
	l0.2,1.2h1.1l-2.7,2.7l-0.6,1.2c0,0,2.3,0.9,5.4,0.9c3.1,0,7.8-0.7,8.5-0.7c0.6,0,3.9,0,3.9,0v-1v-1h1.4c-0.2,0.1-0.2,0.2-0.2,0.3
	v0.8c0,0.2,0.5,0.5,1.1,0.5s1-0.2,1-0.5v-0.8c0-0.2-0.5-0.5-1-0.5c-0.2,0-0.3,0-0.4,0v-0.2H383l-0.1-0.3h4.4L387.1,393.7
	L387.1,393.7z M365.5,407.4v-9.3h12.2v9.3H365.5z"/>
<path fill="#231F20" d="M405.4,408.7l7.4-3.7v-2.2H412c-0.4,0-0.8-0.1-1.2-0.2v1.2l-7.4,3.7v2.9h2V408.7L405.4,408.7z M425.2,410.4
	v-2.9l-7.4-3.7v-1.2c-0.4,0.2-0.8,0.2-1.2,0.2h-0.8v2.2l7.4,3.7v1.7L425.2,410.4L425.2,410.4z M415.3,410.4v-7.5h-2v7.5H415.3z
	 M426.5,411.4h-4.6c-1.1,0-2,0.9-2,2v4.6c0,1.1,0.9,2,2,2h4.6c1.1,0,2-0.9,2-2v-4.6C428.5,412.3,427.6,411.4,426.5,411.4z
	 M406.8,411.4h-4.6c-1.1,0-2,0.9-2,2v4.6c0,1.1,0.9,2,2,2h4.6c1.1,0,2-0.9,2-2v-4.6C408.8,412.3,407.9,411.4,406.8,411.4z
	 M412,401.9h4.6c1.1,0,2-0.9,2-2v-4.6c0-1.1-0.9-2-2-2H412c-1.1,0-2,0.9-2,2v4.6C410,401,410.9,401.9,412,401.9z M416.6,411.4H412
	c-1.1,0-2,0.9-2,2v4.6c0,1.1,0.9,2,2,2h4.6c1.1,0,2-0.9,2-2v-4.6C418.6,412.3,417.7,411.4,416.6,411.4z"/>
<path fill="#231F20" d="M440.2,391.6l-0.7,0.8l12.1,14.2l-12.1,14.2l0.7,0.8l14.1-14.9L440.2,391.6z"/>
<path fill="#231F20" d="M160.3,402.2v3.2l3.8,3.8l-3.8,3.8v3.2l7-7L160.3,402.2z M146.3,416.2V413l-3.8-3.8l3.8-3.8v-3.2l-7,7
	L146.3,416.2z M153.3,407.8c-0.9,0-1.7,0.8-1.7,1.7c0,0.9,0.8,1.7,1.7,1.7s1.7-0.8,1.7-1.7C155,408.5,154.2,407.8,153.3,407.8z
	 M148.3,407.8c-0.9,0-1.7,0.8-1.7,1.7c0,0.9,0.8,1.7,1.7,1.7s1.7-0.8,1.7-1.7C149.9,408.5,149.2,407.8,148.3,407.8z M158.3,407.8
	c-0.9,0-1.7,0.8-1.7,1.7c0,0.9,0.8,1.7,1.7,1.7c0.9,0,1.7-0.8,1.7-1.7C160,408.5,159.3,407.8,158.3,407.8z"/>
<path d="M159.4,324.2c-1.3-0.8-2.5-1.1-3.7-1.9c-0.8-0.5-1.8-1.7-2.7-2.8c-0.2,1.7-0.7,2.4-1.3,2.9c-1.2,1-2,1.3-3.1,1.9
	c-0.9,0.5-5.8,3.4-5.8,9.7c0,6.3,5.3,11,11.2,11s11-4.3,11-10.8S160.2,324.7,159.4,324.2z M159.6,342.6c-0.1,0.1-1.2,0.9-2.6,1
	c-1.3,0.1-3.1,0.2-4.2-0.8c-0.2-0.2-0.1-0.4,0-0.5c0.1-0.1,0.2-0.2,0.4-0.2c0.1,0,0.1,0,0.2,0c0.5,0.4,1.2,0.7,2.8,0.7
	c1.6,0,2.7-0.4,3.2-0.8c0.2-0.2,0.3,0,0.3,0.1C159.7,342.2,159.8,342.4,159.6,342.6z M155.3,340.3c0.3-0.2,0.7-0.6,1.1-0.8
	c0.4-0.2,0.6-0.1,1-0.1c0.4,0,0.8,0,1.1,0.2s0.5,0.6,0.6,0.9c0.1,0.2,0,0.4-0.2,0.5c-0.2,0.1-0.2,0-0.4-0.3s-0.3-0.6-1.2-0.6
	s-1.1,0.3-1.5,0.6c-0.4,0.3-0.6,0.5-0.7,0.3C155,340.8,155,340.6,155.3,340.3z M161.8,340.5c-0.9-0.1-2.6-2.8-3.8-2.9
	c-1.4,0-4.5,3-6.9,3c-1.5,0-1.9-0.2-2.4-0.5c-0.7-0.5-1.1-1.3-1.1-2.4c0-1.9,1.8-3.7,4.1-3.7c2.9,0,4.8,2.8,6.3,2.8
	c1.2,0,3.6-2.4,4.7-2.4c1.2,0,1.6,1.3,1.6,2c0,0.8-0.2,2.1-0.8,3C162.8,340.3,162.5,340.6,161.8,340.5z"/>
<path fill="#231F20" d="M433.5,330.7l-0.9-0.9v-7.3v-0.2h-0.2h-1.9l3-3l3,3h-1.9h-0.2v0.2v7.4L433.5,330.7z M431.1,331.3h-7.3h-0.2
	v-0.2v-1.9l-3.1,3.1l3.1,3.1v-2v-0.2h0.2h7.4l0.9-0.9L431.1,331.3z M427.1,325l0.2-0.2l2.1-2.1H424v5.4l2.1-2.1l0.2-0.2l0.2,0.2
	l4.9,4.8h0.9V330l-4.9-4.9L427.1,325z M427.7,325l4.4,4.4v-6.7H430L427.7,325z M424,328.7v2.1h6.6l-4.4-4.4L424,328.7z M432.6,334.6
	v7.3v0.2h-0.2h-2l3.1,3.1l3.1-3.1h-1.9h-0.2v-0.2v-7.2l-0.9-0.9L432.6,334.6z M427.3,339.6l-0.2-0.2l0.2-0.2l4.9-4.9v-0.8h-0.8
	l-4.9,4.9l-0.2,0.2l-0.2-0.2l-2.1-2.1v5.3h5.3L427.3,339.6z M430.7,333.5H424v2.2l2.2,2.2L430.7,333.5z M430,341.7h2.2V335l-4.4,4.4
	L430,341.7z M439.8,324.8l0.2,0.2l-0.2,0.2l-4.9,4.9v0.8h0.9l4.9-4.9l0.2-0.2l0.2,0.2l2.1,2.1v-5.4h-5.4L439.8,324.8z M437,322.7
	h-2.1v6.7l4.4-4.4L437,322.7z M443.5,331.3h-0.2H436l-0.9,0.9l0.9,0.9h7.4h0.2v0.2v1.9l3-3l-3-3v1.9v0.2H443.5z M436.4,330.8h6.7
	v-2.1l-2.3-2.3L436.4,330.8z M439.9,339.5l-0.2,0.2l-2.1,2.1h5.4v-5.4l-2.1,2.1l-0.2,0.2l-0.2-0.2l-4.9-4.9h-0.8v1l4.8,4.8
	L439.9,339.5z M439.2,339.5l-4.3-4.3v6.6h2.1L439.2,339.5z M443,335.7v-2.2h-6.7l4.4,4.4L443,335.7z"/>
<path d="M461.8,321.3c-6.1,0-11,4.9-11,11v8.5c0,1.4,1.1,2.5,2.5,2.5h8.5c6.1,0,11-4.9,11-11C472.8,326.2,467.9,321.3,461.8,321.3z
	 M465.1,326.3c-1.5,0-2.8,1.3-2.8,2.8v2.4c0,0.1,0,0.2,0.1,0.2v0.1h0.1l0,0h0.1c0.1,0.1,0.2,0.1,0.3,0.1h1.8c0.6,0,1.1,0.5,1.1,1.1
	c0,0.6-0.5,1.1-1.1,1.1h-2.2l0,0v0.1v2.7c0,2.8-2.3,5.1-5.1,5.1c-0.4,0-0.7,0-1.1-0.2c-0.6-0.2-1-0.6-1-1.1c0-0.6,0.5-1.1,1.1-1.1
	c0.2,0,0.3,0,0.4,0c0.1,0,0.3,0,0.6,0c1.5,0,2.8-1.3,2.8-2.8v-2.4c0-0.1,0-0.2-0.1-0.2l-0.1-0.1l0,0l0,0l0,0
	c-0.1-0.1-0.2-0.1-0.3-0.1h-1.8c-0.6,0-1.1-0.5-1.1-1.1c0-0.6,0.6-1.1,1.2-1.1l0,0h2.1l0,0c0,0,0.1,0,0.1-0.1V329
	c0-2.8,2.3-5.1,5.1-5.1c0.4,0,0.7,0,1.1,0.2c0.6,0.2,1,0.6,1,1.1c0,0.6-0.5,1.1-1.1,1.1c-0.2,0-0.3,0-0.4,0
	C465.5,326.3,465.3,326.3,465.1,326.3z M452,337c0-2.9,2.3-5.1,5.2-5.1c-0.4,0.2-0.7,0.6-0.7,1.1c0,0.6,0.4,1,0.9,1.2h-0.1
	c-1.5,0-2.7,1.2-2.7,2.7c0,1.2,0.8,2.2,1.8,2.6c0,0,0,0-0.1,0c-0.8,0-1.3,0.5-1.3,1.3c0,0.5,0.4,1,1,1.2
	C453.6,341.5,452,339.4,452,337z M465.2,334.1c0.4-0.2,0.6-0.6,0.6-1.1c0-0.6-0.4-1-0.9-1.2h0.1c1.5,0,2.7-1.2,2.7-2.7
	c0-1.2-0.8-2.2-1.8-2.6c0,0,0,0,0.1,0c0.8,0,1.3-0.5,1.3-1.3c0-0.5-0.4-1-1-1.2c2.3,0.6,3.9,2.6,3.9,5
	C470.3,331.9,468,334.1,465.2,334.1z"/>
<g>
	<path fill="#231F20" d="M405.2,285.1c0.2,0,0.2-0.2,0.2-0.3c-0.1-0.2-0.2-0.2-0.4-0.2c-0.2-0.2-0.2-0.4-0.3-0.3
		C404.5,284.4,405.1,285,405.2,285.1z"/>
	<path fill="#231F20" d="M408.2,292.2c0-0.2-0.5-0.4-0.6-0.5c0.3-1,0.2-1.5-0.1-2.5c-0.2-0.7-0.8-1.8-1.4-2.1c0.1,0.1,0.4,0.5,0.6,1
		c0.5,0.9,1,2.2,0.6,3.3c-0.1,0.4-0.4,0.5-0.6,0.5c-0.9,0.1-0.4-1-0.7-2.5c-0.4-1.7-0.8-1.8-0.9-1.9c-0.5-2.2-1-1.9-1.2-2.7
		c-0.2-0.7,0.6-1.4-0.4-1.5c-0.3-0.1-0.8-0.4-1-0.4s-0.2-1.1,0.4-1.2c0.6-0.1,0.8,0.7,0.6,1c-0.2,0.3,0,0.4,0.3,0.3
		c0.2-0.1,0.1-0.8,0.2-0.9c-0.2-1-0.6-1.1-1-1.2c-1.6,0.2-0.9,1.9-1,1.8c-0.2-0.2-0.9,0-0.9-0.2c0-0.9-0.3-1.4-0.7-1.4
		c-0.5,0-0.7,0.6-0.7,1c0,0.3,0.2,1.1,0.4,1c0.1,0,0.3-0.2,0.1-0.2c-0.2,0-0.3-0.2-0.3-0.6c0-0.3,0.1-0.6,0.5-0.6c0.5,0,0.5,1,0.4,1
		c0,0,0,0-0.1,0c0.1,0,0.1,0,0.2,0c-0.2,0.1-0.2,0.2-0.2,0.2c-0.1,0-0.1-0.1,0-0.2c-0.1,0.1-0.3,0.3-0.3,0.3
		c-0.2,0.2-0.5,0.3-0.6,0.4c-0.2,0.2-0.2,0.5-0.1,0.6c0.6,0.3,0.4,0.7,1.1,0.7c0.5,0,0.9-0.1,1.2-0.2c0.2-0.1,1.1-0.2,1.3-0.6
		c0.1-0.1,0.2-0.1,0.2-0.1c0.1,0.1,0.2,0.3-0.2,0.4c-0.4,0.1-0.8,0.3-1.2,0.5c-0.3,0.2-0.5,0.2-0.8,0.2c-0.7,0.2-1.4-0.2-0.8,0.2
		c0.2,0.2,0.3,0.2,0.8,0.2c1-0.1,2.1-1.3,2.2-0.7c0,0.2-0.3,0.2-0.6,0.4c-1,0.5-1.6,1.4-2.2,1c-0.6-0.3-1-1.6-1-1
		c0,0.9-1.2,1.7-0.6,2.7c-0.3,0.1-1.2,1.8-1.3,2.7c-0.1,0.6,0.1,1.2-0.1,1.5c-0.2,0.5-1-0.6-0.7-1.8c0-0.2,0-0.2-0.1-0.2
		c-0.4,0.6-0.2,1.4,0.1,1.9c0.1,0.2,0.4,0.3,0.6,0.6c0.4,0.5,2,1.7,2.3,2c0.4,0.3,0.2,1.1-0.5,1.2c0.3,0.7,0.7,0.8,0.9,2.1
		c0.5-0.2,0.2-0.8,0.1-1.1c-0.1-0.2-0.2-0.3-0.2-0.4c0,0,0.2-0.2,0.4-0.1c0.4,0.4,1.2,0.5,2,0.4c0.8-0.1,1.7-0.4,2.1-1
		c0.2-0.2,0.3-0.4,0.4-0.3s0.1,0.3,0.1,0.6c0,0.4-0.2,0.8-0.2,1.1c-0.1,0.4-0.1,0.6,0.2,0.6c0.1-0.7,0.2-1.4,0.3-2
		c0-0.6-0.2-1.4-0.2-2.1c0-0.2,0-0.4,0-0.5c0.1-0.5,0.3-0.7,0.5-0.5c0.1,0,0.2,0,0.3,0C406.3,291.8,407.7,291.8,408.2,292.2z
		 M402,282.9c-0.1,0-0.1-0.2-0.3-0.2C402,282.6,402.2,282.8,402,282.9z"/>
	<path fill="#231F20" d="M402.2,275.6c-7.5,0-13.7,6.1-13.7,13.7c0,7.5,6.1,13.7,13.7,13.7c7.5,0,13.7-6.1,13.7-13.7
		C415.9,281.7,409.8,275.6,402.2,275.6z M409.4,297.3c-0.7,0.4-1.6,1.1-1.9,1.4c-0.2,0.2-1.3,0.4-1.8,0.1c-0.6-0.3-0.3-0.9-1.4-0.9
		c-0.5,0-1,0-1.5,0c-0.5,0.1-0.9,0.1-1.4,0.1c-1.6,0.1-1.8,1-2.7,1c-0.7,0-1.5-0.6-3.1-0.9c-1-0.2-2-0.2-2.3-0.7
		c-0.2-0.5,0.3-1,0.3-1.4c0.1-0.6-0.5-1.4-0.1-1.8c0.3-0.2,1-0.1,1.4-0.3c0.5-0.3,0.6-0.5,0.6-1c0.2,0.6,0,1-0.4,1.3
		c-0.2,0.2-0.6,0.2-1,0.2c-0.2,0-0.4,0.1-0.5,0.2s-0.1,0.3,0.1,0.6c0.1,0.3,0.2,0.5,0.2,0.9c-0.1,0.3-0.5,0.8-0.4,1.1
		c0,0.2,0.1,0.2,0.4,0.3c0.5,0.2,1.3,0.2,2.2,0.5c0.9,0.2,1.9,0.6,2.5,0.6c1.8-0.2,0.8-2.2,0.5-2.7c-1.5-2.4-2.5-3.9-3.3-3.4
		c-0.2,0.2-0.2-0.4-0.2-0.6c0-0.8,0.4-1,0.6-1.7c0.4-1.1,0.7-2.5,1.4-3.1c0.5-0.7,1.3-1.8,1.4-2.3c-0.1-1.3-0.2-2.6-0.2-3.7
		c0-1.3,0.2-2.3,1.5-3.1c0.3-0.2,0.7-0.2,1.2-0.2c0.8,0,1.8,0.2,2.3,0.6c1,0.7,1.5,2.2,1.4,3.2c-0.1,0.8,0.1,1.6,0.3,2.5
		c0.3,1,0.8,1.8,1.6,2.6c0.9,1,1.6,3,1.8,4.2c0.2,1.2-0.1,1.9-0.3,1.9c-0.3,0.1-0.6,1.3-1.8,1.2c-0.7-0.1-0.8-0.5-1-0.9
		c-0.1-0.2-0.2-0.3-0.3-0.3c-0.1,0-0.2,0.1-0.3,0.2c-0.2,0.2-0.2,0.5-0.3,0.8c0,0.2,0.1,0.4,0.1,0.6c0.2,0.8,0.2,1.4,0,2.3
		c-0.2,1.7,1.1,2,2.1,1.2s1.1-0.9,2.3-1.3c1.8-0.6,1.2-1.1,0.2-1.4c-0.8-0.3-0.9-1.8-0.6-2c0.1,1.6,0.9,1.8,1.2,2
		C412.3,296.1,410.3,296.9,409.4,297.3z"/>
	<path fill="#231F20" d="M397.9,288.2c0.1-0.2,0.1-0.3,0-0.3c-0.1-0.1-0.1,0.2-0.2,0.3c-0.1,0.2-0.3,0.3-0.2,0.3
		C397.6,288.5,397.8,288.5,397.9,288.2z"/>
</g>
<path fill="#231F20" d="M480.9,293.4C480.9,293.3,480.9,293.3,480.9,293.4l1.2-0.1c0.2,0.4,0.5,0.7,1.1,0.7l0,0
	c0.4,0,0.6-0.4,0.6-0.7l0,0c0-0.5-0.2-0.9-0.6-0.8c-0.3,0.1-0.1,0.5,0.1,0.5c0,0.1,0.1,0.2,0,0.3h-0.7c-0.3-0.3-0.3-0.6-0.2-1.1
	c0.2-0.4,0.6-0.5,1-0.6l0.3-0.1c0.5,0.1,1,0.6,1.4,1.4c0,0.1,0.1,0.2,0.1,0.3l0,0l0,0c0.2,1.1-0.2,1.8-1.3,1.9
	C482.4,295.3,481.4,294.7,480.9,293.4z M488.8,293.9c0.7,0,0.7-0.3,0.7-0.6h-1.2C488.3,293.5,488.3,293.9,488.8,293.9z M483.5,293.3
	h-0.7c0.1,0.2,0.3,0.3,0.5,0.3C483.4,293.5,483.5,293.4,483.5,293.3z M507.6,288.6c0.3-0.1,0.6-0.2,0.9-0.3c0,0.1-0.1,0.2-0.2,0.3
	c-0.9,1.5-2.4,2.2-4,2.1c-1.4-0.3-1.8-0.7-3.3-1.9c-0.2-0.2-0.5,0.2-0.3,0.4c1.2,1,1.6,1.2,2.2,1.5c0,0.2-0.3,0.2-0.5,0.2
	c-0.4,0-0.6,0.1-0.6,0.4c-0.2,0.5,0.2,1.5,0.2,1.5c0.1,0.2,0.1,0.4,0.1,0.5c0,0.4,0,0.5-0.3,0.6c-0.4,0.1-0.6,0-0.8-0.6l0,0
	c-0.1-0.3-0.2-0.4-0.2-0.4l-0.5-1.5v-0.1c-0.7-1.7-1.3-0.5-1.1,0.1c0,0,0,0,0,0.1c0.1,0.6,0.1,1.2,0.2,1.7c0,0.1,0,0.1,0,0.2
	c0,0.3,0,0.6-0.4,0.7c-0.6,0-0.6-0.4-0.7-0.7c0,0,0,0,0-0.1l-0.5-1.9l0,0c-0.2-0.4-0.1-0.6-1-0.5c-1.2,0.1-1.8,0.2-2.7,0
	c-1.3-0.2-1.6,0-1.7,0.5c0,0.1,0,0.2,0,0.4c-0.1,0.6-0.1,0.9-0.2,1.6c0,0.1,0,0.2,0,0.3c0,0.1-0.1,0.5-0.6,0.4
	c-0.4-0.1-0.5-0.2-0.5-0.6l0,0c0-0.2,0-0.3,0-0.5c0-0.3,0-1.1,0-1.1c0-0.1,0-0.2,0-0.3c0-1.1-1.3-0.9-1.4-0.2c0,0.1,0,0.1,0,0.2
	c0,0.4,0,0.6-0.1,1.9l0,0h-1.2l0,0l-0.1-1.9v-0.2c-0.3-1.4-1.6-1.7-3.1-1.4c-0.8,0.3-1.4,0.8-1.6,1.2c-0.2,0-0.4,0.1-0.6,0.2
	c-0.1,0-0.2,0.1-0.3,0.1c-0.2,0.2-0.4,0.4-0.5,0.7l0,0c-0.1,0.4-0.1,0.9,0.1,1.3H481c-0.2-0.6-0.3-1.3-0.2-2c0.1-0.9,0.5-1.8,1-2.7
	c0.4-0.6,0.9-1.2,1.5-1.7c2.8-2.4,4.4-2.8,6.4-3.5c2.3-0.6,6.3-1.1,9.2-0.5c2.9,0.6,3.4,0.7,5.9,2.2c1.6-0.5,3.5,1.2,3.9,2.7
	c-0.8,0.3-1.7,0.7-3,0.7c-0.9,0-2-0.7-2.9-0.8c-0.2,0-0.3,0.4,0,0.5c0.5,0.1,0.9,0.3,1.4,0.5c0.1,0,0.3,0.1,0.4,0.1
	c0.3,0.1,0.7,0.2,1.1,0.2C506.4,288.9,507.1,288.8,507.6,288.6z M504.3,286.6c0,0.7,0.5,1.4,1.2,1.4s1.5-0.5,1.5-1.2
	s-0.7-1.3-1.5-1.3C504.8,285.5,504.3,285.9,504.3,286.6z M505.6,287c0.2,0,0.3-0.1,0.3-0.3c0-0.1-0.1-0.3-0.3-0.3
	c-0.2,0-0.3,0.1-0.3,0.3C505.4,286.9,505.5,287,505.6,287z M504.7,286.7c0-0.5,0.4-1,1-1s1,0.4,1,1c0,0.5-0.4,0.9-1,0.9
	S504.7,287.2,504.7,286.7z M505,286.7c0,0.4,0.4,0.6,0.7,0.6c0.4,0,0.6-0.3,0.6-0.6c0-0.4-0.2-0.6-0.5-0.6
	C505.4,286.1,505,286.4,505,286.7z"/>
<path d="M538.9,330.1c0-0.1-0.1-0.1-0.1-0.1s0.1-0.1,0.1-0.2s0.1-0.2,0.1-0.2s0.1,0,0.1,0.4c0,0.3-0.1,0.4-0.1,0.4
	S538.9,330.3,538.9,330.1z M535.6,333.1c0,0.1,0.3,0.1,0.5,0.2s0.2,0,0.3,0s0.1,0.1,0.2,0s0.4-0.3,0.4-0.3c-0.1,0-0.2,0.1-0.4,0.1
	c-0.4,0-0.5,0-0.7,0S535.6,333,535.6,333.1z M534.5,345c-0.2,0-0.4,0-0.7-0.1c-0.9-0.3-1.1-0.4-1.3-0.5s-0.3-0.3-0.4-0.4
	c-0.1-0.1-0.1-0.2-0.2-0.2c-0.1,0-0.3-0.3-0.4-0.3c0,0,0.1,0.3,0.2,0.3c0.1,0.1-0.4-0.1-0.5-0.2c-0.1,0-0.3-0.1-0.3-0.2s0-0.1,0-0.1
	c0-0.1-0.6-0.2-0.6-0.3c0,0,0.1-0.2,0.2-0.3s-0.1,0-0.1,0s-0.1-0.1-0.2-0.1s-0.1-0.1-0.1-0.1l-0.1-0.1l-0.1-0.1l-0.1-0.1
	c-0.1-0.1-0.2-0.3-0.2-0.3c0-0.1,0-0.1-0.1-0.1s-0.1,0-0.2,0c-0.1,0-0.1-0.1-0.1-0.1c0-0.1-0.1-0.1-0.1-0.2l-0.1-0.1l-0.1-0.1
	l-0.2-0.4c0-0.1,0-0.3,0-0.3l-0.1,0.2c0,0-0.2-0.4-0.4-0.6c-0.2-0.2-0.8-1-0.8-1.1c-0.1-0.1,0-0.1,0.1-0.1l0.3,0.1
	c0,0-0.1-0.1-0.3-0.2c-0.1-0.1-0.3-0.4-0.3-0.4s0.1,0,0.1-0.1c0,0,0,0,0.1-0.1c0,0,0-0.1-0.1-0.2s-0.2-0.3-0.3-0.5
	c-0.1-0.2-0.2-0.2-0.2-0.3c0-0.1-0.1-0.1-0.1-0.2c0-0.2,0-0.1,0.1,0s0.3,0.2,0.4,0.2c0.1,0,0-0.1-0.2-0.6c-0.1-0.2-0.3-0.6-0.3-0.7
	c-0.1-0.1-0.1-0.3-0.2-0.3c-0.1,0-0.2,0.7-0.3,0.7s-0.6-1.5-0.6-1.5h0.2c0,0-0.1-0.1-0.1-0.3c0-0.1-0.1-0.2-0.1-0.2s0-0.2,0-0.4
	c0-0.2,0-0.2,0-0.3c0-0.1,0-0.1-0.2-0.4s-0.2-0.6-0.2-0.8c0-0.2,0-0.4,0-0.7s0.1-0.9,0.2-1.2c0-0.3,0.1-1,0.2-1.4
	c0-0.5,0.1-0.7,0.3-1c0.1-0.2,0.2-0.3,0.4-0.6c0.1-0.3,0.3-0.8,0.3-0.8h-0.3c0,0,0,0,0.1-0.1c0.1-0.1,0.1-0.1,0.4-0.6
	c0.3-0.4,0.8-1,1.5-1.6c0.6-0.6,1.2-0.7,1.3-0.7s0.2,0,0.3,0c0,0,0,0,0.3-0.3c0.1-0.2,0-0.1,0,0c-0.1,0.1-0.2,0.2-0.3,0.2
	s-0.1-0.1-0.1-0.1s0.1-0.1,0.5-0.5c0.4-0.3,0.5-0.4,0.6-0.4s0.2,0,0.5,0c0.5,0,0.9-0.3,0.9-0.4s0,0-0.4,0.2
	c-0.3,0.1-0.4,0.1-0.4,0.1s0.1-0.1,0.1-0.2s0.3-0.1,0.7-0.2s0.4-0.2,0.4-0.4s0.3-0.2,0.7-0.3c0.3,0,0.7-0.1,0.8-0.1s0.1,0,0.1,0
	s-0.1,0.1-0.3,0.1c-0.3,0.1-0.2,0.1-0.2,0.1s0.1-0.1,0.3-0.1c0.1,0,0.2-0.1,0.3-0.1s0-0.1,0.1-0.1c0,0,0.1,0,0.2-0.1
	c0.1-0.1,0.5-0.1,1-0.1c0.4,0,1.1,0.1,1.4,0.1c0.3,0.1,0.9,0.3,1.2,0.4c0.3,0.1,0.7,0.3,1.3,0.7c0.6,0.3,0.7,0.5,1.1,0.8
	c0.4,0.3,0.6,0.6,0.9,1c0.3,0.5,0.4,0.7,0.5,0.9c0.2,0.4,0.3,1.1,0.3,1.3s0.1,1,0.1,1c0,0.1,0,0.1,0.1,0.1c0,0,0,0.1,0,0.2
	c0,0.1,0,0.2,0,0.5s0.1,0.8,0.1,1.1c0,0.5-0.3,1.3-0.3,1.3l0.2-0.6c0,0,0,0.5,0,0.6s0,0.2-0.1,0.4c-0.1,0.2-0.2,0.5-0.2,0.6
	s-0.2,0.1-0.2,0.2l-0.1,0.1c0,0-0.2,0.3-0.2,0.4s0.1,0.1,0.1,0.1s0,0.1,0,0.2s-0.1,0.2-0.1,0.2c-0.1,0.1-0.2,0.2-0.6,0.5
	c-0.3,0.3-0.9,0.8-1.1,0.8c-0.2,0,0-0.1,0.1-0.2c0.1-0.1,0.2-0.2,0.1-0.2c0,0-0.4,0.3-0.5,0.4s0,0.1-0.1,0.2s-0.2,0.1-0.4,0.2
	s-0.4,0.1-0.5,0.1l-0.1-0.1c0,0-1.4,0.6-2.1,0.6c-0.6,0-1.4-0.4-2.1-0.9c-0.7-0.5-1.1-1.2-1.2-1.9c-0.1-0.6-0.2-1.7-0.2-1.9
	c0-0.2,0,0,0,0H533c0,0,0,0.1,0,0c0-0.1,0-0.2,0-0.3c0-0.1,0-0.2,0-0.3c0-0.1,0-0.3,0-0.5c0-0.1,0-0.3,0.2-0.7
	c0.2-0.4,0.5-0.9,0.7-1.1c0.2-0.2,0.5-0.4,0.9-0.6c0.4-0.2,0.8-0.4,1.1-0.5s0.7-0.2,1-0.2c0.4,0,0.8,0.1,1.1,0.3
	c0.3,0.1,0.6,0.4,0.7,0.5c0.2,0.1,0.4,0.3,0.4,0.3s-0.1-0.2-0.2-0.3c-0.1-0.1-0.3-0.3-0.4-0.4c-0.1-0.1-0.3-0.3-0.6-0.5
	s-0.7-0.3-0.9-0.3s-0.7,0-0.9,0s-0.9,0.1-1.1,0.1c-0.2,0.1-0.5,0.2-0.6,0.3c-0.1,0.1-0.2,0.1-0.3,0.2s-0.2,0.2-0.3,0.3
	s-0.4,0.6-0.4,0.7s-0.3,0.2-0.5,0.4c-0.1,0.2-0.2,0.6-0.3,0.8c0,0.2-0.1,0.4-0.2,0.4c-0.1,0.1-0.1,0.1-0.1,0.2
	c0,0.3-0.1,1.1-0.1,2.1c0,0.4,0.2,0.8,0.3,0.9c0.1,0.2,0.3,0.5,0.3,0.6c0.1,0.1,0.1,0.2,0.1,0.2l-0.1-0.3c0,0,0.4,0.4,0.6,0.5
	c0.1,0.1,0.5,0.4,0.6,0.5s0.6,0.5,0.8,0.6c0.2,0.1,0.3,0.2,0.3,0.2l0,0c0,0,0.1,0.1,0.7,0.3c1.2,0.4,1.8,0.4,2,0.4s0.5,0,1.2-0.2
	c0.6-0.1,1.3-0.6,1.5-0.8c0.3-0.2,0.8-0.6,0.9-0.7c0.1-0.1,0.3-0.2,0.4-0.3c0.1-0.1,0.1-0.1,0.2-0.2c0.1-0.1,0.2-0.2,0.3-0.3
	c0.1-0.1,0.3-0.2,0.3-0.2s-0.1,0.2-0.2,0.2c0,0.1,0,0,0.1,0s-0.1,0.2-0.1,0.2c0,0.1,0.3-0.5,0.3-0.5c0-0.1-0.1,0-0.2,0s-0.1,0-0.1,0
	s0.1-0.2,0.2-0.3c0.1-0.2,0.3-0.4,0.3-0.4l0.3,0.4c0,0,0-0.2,0-0.5c0-0.2,0.2-0.4,0.3-0.5c0-0.1,0.1-0.2,0.3-0.4
	c0.1-0.2,0.2-0.5,0.2-0.7s0-0.5,0-0.5s0-0.1,0.1-0.1c0.1-0.1,0,0,0,0.1c0,0.1,0.1,0.2,0.1,0.2s0-0.1,0-0.2c0-0.1,0,0,0-0.1
	c0-0.1-0.1,0-0.1-0.1c0,0,0,0,0-0.2c0-0.1,0-0.1,0,0c0,0,0.1,0.1,0.1,0.2s0.1,0.3,0.1,0.3s-0.1-0.2-0.1-0.5s0.1-0.4,0.2-0.5
	c0.1-0.1,0.1-0.2,0.2-0.4c0-0.2,0.1-0.2,0-0.2s-0.1,0.2-0.2,0.2c-0.1,0-0.1-0.5-0.1-0.8c0-0.2,0.1-0.2,0.1-0.2s0,0,0.1,0
	c0,0,0,0-0.1-0.1s-0.2-0.3-0.3-0.6s0-0.3,0-0.3s0.1,0.1,0.1,0.2c0.1,0.1,0.1,0.2,0.1,0.2s-0.1-0.6-0.2-0.7c0-0.1,0-0.4,0-0.4
	c0-0.1-0.1-0.3-0.2-0.4c-0.1-0.2-0.1,0,0,0.2c0,0.2-0.2-0.1-0.3-0.4c-0.1-0.4-0.2-0.5-0.1-0.5c0.1,0,0.3,0.3,0.4,0.3
	c0.1,0,0.1-0.3,0.1-0.3s0.4,0.5,0.5,0.9c0.1,0.3,0.2,0.6,0.3,1c0.1,0.3,0.2,0.8,0.2,0.8s-0.2-0.8-0.2-1c-0.1-0.2-0.2-0.8-0.3-0.9
	s0-0.1,0-0.1s0.1,0,0-0.1c0-0.1-0.2-0.8-0.2-0.8l0.3,0.5c0,0-0.3-0.9-0.5-1.5c-0.2-0.6-0.8-1.2-1-1.5c-0.3-0.3-0.7-0.6-0.9-0.8
	c-0.3-0.2-0.7-0.5-0.9-0.6c-0.2-0.1-0.6-0.3-0.6-0.3s0.2,0.3,0.3,0.4c0.1,0.1,0,0.1,0,0.1s-0.6-0.4-0.7-0.4c-0.1,0-0.1-0.1-0.1-0.2
	s-0.5-0.3-0.6-0.3s-0.2,0.1-0.2,0.2s-0.3,0-0.3,0s-0.6-0.3-0.8-0.4c-0.3-0.1-0.4-0.2-0.7-0.2s-1.1-0.4-1.1-0.4l0.1,0.3
	c0,0-0.5-0.2-0.7-0.2s-0.3,0.2-0.5,0.2c-0.1,0-0.5,0-0.6,0c-0.1,0-0.1-0.1,0-0.1c0.1,0,0.1-0.1,0.2-0.1s0.3-0.1,0.3-0.1
	s-0.3,0.1-0.5,0.1c-0.2,0-0.3-0.1-0.4-0.1s-0.6,0.1-0.6,0.1s0.1-0.1,0.2-0.1c0.1-0.1,0.3-0.2,0.3-0.2s-0.1,0-0.2,0
	c-0.3,0-0.9,0.2-1.1,0.3c-0.2,0,0-0.2,0-0.2s-0.3,0.1-0.6,0.3c-0.2,0.1-0.7,0.3-1.1,0.4c-0.4,0.1-0.7,0.3-1,0.4s-0.6,0.4-0.7,0.5
	c-0.2,0.1-0.4,0.4-0.5,0.4c-0.1,0.1-0.1,0-0.1,0c0-0.1,0-0.1,0-0.1s0,0.1-0.2,0.2c-0.2,0.2-0.5,0.5-0.6,0.6s-0.4,0.3-0.6,0.4
	c-0.1,0.1-0.4,0.4-0.5,0.5s-0.2,0.2-0.3,0.5C526,324,526,324,526,324s-0.1,0-0.1,0.1s-0.1,0.2-0.2,0.3c0,0.1-0.1,0.2-0.2,0.4
	c-0.1,0.2-0.2,0.4-0.3,0.6s-0.2,0.4-0.3,0.4s-0.1-0.2-0.1-0.2s0,0.1-0.1,0.3c-0.1,0.1-0.4,0.8-0.5,1.1c-0.1,0.4-0.6,2-0.6,2
	s0.1,0.2,0.1,0.3c0,0.2-0.1,1.5-0.1,1.7c0,0.2,0,0.6,0,0.8c0,0.2,0,0.5,0,1.4s0,2.1,0.1,2.4c0,1.1,0.4,2.1,0.7,2.8s0.7,1.4,1.5,2.4
	c0.8,1,1.2,1.4,1.9,1.9c0.6,0.5,1.4,0.9,1.9,1.1c0.5,0.2,1.4,0.5,1.7,0.6c0.3,0.1,0.8,0.3,1,0.3c0.2,0.1,0.4,0.1,0.7,0.2
	c0.3,0.1,0.4,0.1,0.5,0.1s0.2,0,0.6,0c0.4,0,1,0,1,0S534.8,345,534.5,345z M537.8,332.4c0,0,0.2-0.1,0.3-0.1s0.1,0.1,0.1,0.1
	c0,0.1,0,0,0.1,0c0-0.1,0,0,0.2-0.2c0.2-0.2,0.3-0.8,0.3-0.8s-0.1,0.4-0.3,0.6c-0.1,0.2-0.2,0.2-0.3,0.3
	C537.9,332.3,537.8,332.4,537.8,332.4c0-0.1,0.2-0.3,0.3-0.5c0.1-0.1,0.2-0.4,0.2-0.4s-0.1,0.2-0.3,0.3c-0.2,0.2-0.3,0.4-0.3,0.4
	C537.7,332.3,537.7,332.3,537.8,332.4C537.7,332.4,537.8,332.3,537.8,332.4z M543.2,331C543.1,331,543.1,331,543.2,331
	c0,0.1-0.2,0.7-0.2,0.8s0,0.1,0.1-0.1S543.2,331.2,543.2,331L543.2,331z M543.6,331c0,0-0.1,0.2-0.1,0.4s-0.1,0.4-0.1,0.6
	c-0.1,0.2-0.1,0.5-0.2,0.7c-0.1,0.2-0.4,0.9-0.4,0.9s0.2-0.3,0.4-0.6c0.2-0.3,0.2-0.6,0.3-0.7c0-0.2,0.1-0.5,0.1-0.6
	s0.1-0.4,0.1-0.5C543.6,331,543.6,331,543.6,331z M523.4,327.8c0,0,0.1-0.3,0.2-0.6c0-0.3,0.1-0.4,0.1-0.4s-0.3,0.3-0.3,0.5
	s0.1,0.1,0.1,0.2C523.5,327.7,523.4,327.8,523.4,327.8z M523.9,325.6c0,0,0.1,0,0.1-0.1c0.1-0.1,0.1-0.1,0.1-0.1l0,0
	C524,325.5,523.9,325.6,523.9,325.6L523.9,325.6z M524.1,325.4c0,0,0.1,0,0.1-0.1s0.1-0.1,0.1-0.2s0.1-0.3,0.1-0.3
	c0-0.1-0.1,0-0.1,0s-0.1,0-0.1,0.1c0,0-0.1,0.1-0.1,0c0,0,0-0.1,0,0.1c0,0.1,0,0.1,0,0.2C524.1,325.4,524.1,325.4,524.1,325.4z
	 M531.2,333.6l-0.1,0.3c0,0,0.1,0.2,0.3,0.4c0.1,0.2,0.2,0.4,0.3,0.4l0.2,0.2l0.1,0.1c0,0-0.1-0.3-0.2-0.4c-0.1-0.1-0.1-0.2-0.3-0.4
	C531.3,333.9,531.2,333.6,531.2,333.6z M531.7,334.1c0,0,0.2,0.3,0.3,0.4s0.3,0.5,0.5,0.7s0.4,0.4,0.6,0.6c0.2,0.1,0.8,0.5,0.9,0.6
	c0.2,0.1,0.4,0.2,0.7,0.3c0.3,0.1,0.4,0.2,0.6,0.2c0.1,0,0.5,0.1,0.5,0.1c0.7,0,1.5-0.4,1.5-0.4s-0.6,0-0.8,0c-0.3,0-0.9,0-1.4-0.2
	c-0.5-0.2-0.6-0.2-0.6-0.3c-0.1-0.1-0.4-0.3-0.4-0.3c0-0.1,0-0.1,0-0.1s-0.1,0-0.1,0.1c0,0.1,0,0.1,0,0.1s-0.1,0-0.4-0.2
	c-0.8-0.4-1.2-1-1.2-1s0,0.2,0.3,0.5c0.3,0.3,0.5,0.5,0.5,0.5s-0.4-0.2-0.5-0.2c-0.1-0.1-0.3-0.4-0.5-0.5c-0.1-0.2-0.2-0.3-0.3-0.3
	c0-0.1-0.1-0.1-0.1-0.1C531.9,334.1,531.7,334.1,531.7,334.1z M534.7,319.8C534.7,319.9,534.6,319.8,534.7,319.8
	C534.6,319.9,534.7,319.8,534.7,319.8s0.1,0,0.2,0S534.8,319.7,534.7,319.8c-0.3-0.1-0.4-0.1-0.4-0.1L534.7,319.8z M534.1,319.5
	L534.1,319.5c0.1,0,0.1,0,0.2,0s0.4-0.1,0.3-0.1c-0.1,0-0.2,0-0.3,0C534.3,319.4,534.1,319.5,534.1,319.5z M534.8,319.4h0.3
	c0,0,0.2,0,0.1,0c-0.1,0-0.1,0-0.2,0C534.9,319.4,534.8,319.4,534.8,319.4z"/>
<path d="M533.8,275.6c-7.4,0-13.4,6-13.4,13.4s6,13.4,13.4,13.4s13.4-6,13.4-13.4S541.2,275.6,533.8,275.6z M534.8,278.1
	c0.1,0,0.1,0,0.2,0C535,278.2,534.9,278.2,534.8,278.1C534.9,278.1,534.7,278.1,534.8,278.1C534.6,278.1,534.7,278.1,534.8,278.1z
	 M534.2,278.4c0,0,0.1,0,0.3,0s0.4,0,0.3,0c-0.1,0-0.2,0.1-0.2,0.1h-0.1h0.1C534.5,278.4,534.2,278.4,534.2,278.4z M534.3,278.2
	c0.1,0,0.2,0,0.3,0S534.3,278.2,534.3,278.2C534.2,278.2,534.2,278.2,534.3,278.2c-0.1,0-0.2,0-0.2,0S534.2,278.2,534.3,278.2z
	 M525.7,283.1c0-0.1,0-0.1,0-0.2c0-0.1,0-0.1,0-0.1h0.1c0,0,0.1,0,0.1-0.1c0,0,0.1-0.1,0.1,0c0,0-0.1,0.2-0.1,0.3
	C525.9,283.1,525.9,283.1,525.7,283.1c0,0.1,0,0.1,0,0.1S525.7,283.2,525.7,283.1z M525.5,283.3l0.1-0.1l0,0
	C525.6,283.2,525.7,283.3,525.5,283.3C525.6,283.4,525.5,283.4,525.5,283.3L525.5,283.3z M525.1,284.7c0-0.1,0.3-0.4,0.3-0.4
	s0,0.1-0.1,0.3c-0.1,0.2-0.2,0.5-0.2,0.5s0-0.1,0-0.2C525.2,284.8,525.1,284.9,525.1,284.7z M535.5,292.7c-0.1,0-0.4,0-0.5,0
	s-0.2-0.1-0.5-0.2c-0.2-0.1-0.5-0.2-0.6-0.2c-0.1-0.1-0.6-0.4-0.8-0.5c-0.2-0.1-0.3-0.3-0.5-0.5c-0.1-0.2-0.3-0.5-0.4-0.6
	c-0.1-0.1-0.2-0.4-0.2-0.4s0.1,0,0.3,0.2l0.1,0.1c0,0,0.1,0.2,0.2,0.3c0.1,0.1,0.3,0.4,0.4,0.4c0.1,0.1,0.4,0.2,0.4,0.2
	s-0.2-0.1-0.4-0.4c-0.2-0.3-0.3-0.4-0.3-0.4s0.3,0.5,1,0.9c0.3,0.2,0.4,0.2,0.4,0.2s0,0,0-0.1s0.1-0.1,0.1-0.1s0,0,0,0.1
	s0.3,0.2,0.3,0.3c0.1,0,0.1,0.1,0.5,0.2c0.4,0.2,0.9,0.2,1.2,0.2c0.2,0,0.7,0,0.7,0S536.1,292.7,535.5,292.7z M532.3,291.2
	C532.3,291.2,532.2,291.1,532.3,291.2c-0.1-0.1-0.3-0.2-0.3-0.3s-0.1-0.2-0.2-0.3c-0.1-0.2-0.2-0.3-0.2-0.3l0.1-0.3
	c0,0,0.1,0.2,0.3,0.5c0.1,0.2,0.2,0.3,0.2,0.3C532.2,290.9,532.3,291.2,532.3,291.2z M542,288c0,0.1-0.1,0.3-0.1,0.4
	c0,0.1-0.1,0.4-0.1,0.5s-0.1,0.3-0.2,0.6c-0.1,0.3-0.3,0.5-0.3,0.5s0.3-0.6,0.3-0.7c0.1-0.1,0.1-0.4,0.2-0.6c0-0.1,0.1-0.3,0.1-0.5
	C541.9,288,542,287.9,542,288C542,287.9,542,287.9,542,288z M541.5,288.5c0,0,0.2-0.5,0.2-0.6s0-0.1,0-0.1s0,0,0,0.1
	C541.6,288,541.5,288.3,541.5,288.5C541.5,288.5,541.4,288.5,541.5,288.5z M542.3,284.8c-0.1-0.3-0.2-0.6-0.3-0.8
	c-0.1-0.3-0.4-0.8-0.4-0.8s0,0.2-0.1,0.2s-0.3-0.3-0.3-0.3c-0.1,0,0,0.1,0.1,0.4c0.1,0.3,0.2,0.6,0.2,0.4c0-0.2-0.1-0.3,0-0.2
	c0.1,0.1,0.2,0.3,0.2,0.4s0,0.3,0,0.4s0.2,0.6,0.1,0.6c0,0-0.1,0-0.1-0.1s-0.1-0.2-0.1-0.2s-0.1,0,0,0.2s0.1,0.4,0.2,0.5
	c0.1,0.1,0.1,0.1,0.1,0.1l0,0c0,0-0.1,0-0.1,0.2c0,0.2,0,0.7,0.1,0.7s0.1-0.1,0.2-0.1s0,0,0,0.2c0,0.2-0.1,0.2-0.1,0.3
	s-0.1,0.2-0.1,0.4c0,0.2,0.1,0.4,0.1,0.4s-0.1-0.1-0.1-0.2c0-0.1-0.1-0.1-0.1-0.1c0-0.1,0-0.1,0,0c0,0.1,0,0.1,0,0.2s0,0,0,0.1
	s0,0,0,0.1s0,0.1,0,0.2c0,0-0.1-0.1-0.1-0.2s0-0.2,0-0.1s-0.1,0.1-0.1,0.1s0,0.2,0,0.4s0,0.4-0.1,0.6c-0.1,0.1-0.2,0.2-0.2,0.3
	s-0.2,0.3-0.2,0.4c0,0.2,0,0.4,0,0.4l-0.2-0.3c0,0-0.2,0.2-0.2,0.4c-0.1,0.1-0.1,0.2-0.1,0.3l0,0c0,0,0.2-0.1,0.2,0
	s-0.2,0.5-0.2,0.4l0.1-0.2c-0.1,0-0.1,0-0.1,0l0.1-0.2c0,0-0.1,0-0.2,0.1c-0.1,0.1-0.2,0.2-0.2,0.3c-0.1,0.1-0.1,0.1-0.1,0.1
	c-0.1,0.1-0.2,0.2-0.3,0.3c-0.1,0.1-0.5,0.4-0.8,0.6c-0.2,0.2-0.8,0.6-1.3,0.7s-0.8,0.1-1,0.1s-0.7,0-1.7-0.4
	c-0.5-0.2-0.6-0.2-0.6-0.2l0,0c0,0-0.1-0.1-0.3-0.2s-0.6-0.5-0.7-0.5c-0.1-0.1-0.4-0.3-0.5-0.4c-0.1-0.1-0.5-0.4-0.5-0.4l0.1,0.2
	c0,0,0,0-0.1-0.1s-0.2-0.4-0.3-0.5s-0.3-0.4-0.3-0.8c0-0.9,0.1-1.5,0.1-1.8c0-0.1,0-0.1,0.1-0.2s0.1-0.2,0.2-0.4
	c0-0.2,0.1-0.6,0.2-0.7c0.2-0.2,0.4-0.3,0.4-0.3c0-0.1,0.3-0.5,0.3-0.6s0.2-0.2,0.3-0.3c0.1-0.1,0.2-0.1,0.3-0.2
	c0.1-0.1,0.3-0.2,0.5-0.2c0.2-0.1,0.8-0.1,0.9-0.1s0.6,0,0.8,0c0.1,0,0.5,0.1,0.8,0.2c0.3,0.2,0.4,0.3,0.5,0.4s0.3,0.3,0.3,0.4
	s0.2,0.2,0.2,0.2s-0.2-0.1-0.3-0.3c-0.1-0.1-0.4-0.3-0.6-0.4c-0.2-0.1-0.6-0.2-0.9-0.2c-0.3,0-0.6,0-0.9,0.2
	c-0.3,0.1-0.6,0.3-0.9,0.4s-0.6,0.3-0.8,0.5c-0.2,0.2-0.5,0.6-0.6,0.9c-0.1,0.3-0.1,0.5-0.1,0.6s0,0.3,0,0.4s0,0.1,0,0.2
	s0,0.2,0,0.3s0,0,0,0h0.1c0,0,0-0.2,0,0c0,0.2,0,1.1,0.1,1.6c0.1,0.5,0.4,1.1,1,1.5c0.6,0.4,1.3,0.8,1.8,0.8c0.6,0,1.8-0.5,1.8-0.5
	s0,0.1,0.1,0.1c0,0,0.2,0,0.4-0.1s0.3-0.1,0.3-0.2s0-0.1,0.1-0.2c0.1-0.1,0.4-0.3,0.4-0.3s0,0.1-0.1,0.1c-0.1,0.1-0.2,0.2-0.1,0.2
	c0.2,0,0.6-0.4,0.9-0.7c0.3-0.3,0.4-0.4,0.5-0.4s0.1-0.1,0.1-0.2s0.1-0.2,0-0.2c0,0-0.1,0-0.1-0.1s0.2-0.4,0.2-0.4s0.1,0,0.1-0.1
	c0,0,0.2,0,0.2-0.1s0.1-0.3,0.2-0.5c0.1-0.2,0.1-0.2,0.1-0.3s0-0.5,0-0.5l-0.2,0.5c0,0,0.2-0.7,0.2-1.1c0-0.2-0.1-0.7-0.1-0.9
	c0-0.2,0-0.3,0-0.4s0-0.2,0-0.2s0,0,0-0.1s-0.1-0.7-0.1-0.9c0-0.2-0.1-0.8-0.3-1.1c-0.1-0.2-0.2-0.3-0.4-0.7
	c-0.3-0.4-0.4-0.6-0.7-0.9c-0.3-0.3-0.5-0.4-0.9-0.7c-0.5-0.3-0.9-0.5-1.1-0.5c-0.2-0.1-0.7-0.3-1-0.3c-0.3-0.1-0.8-0.1-1.2-0.1
	c-0.4,0-0.7,0-0.8,0.1c-0.1,0-0.1,0.1-0.2,0.1c-0.1,0,0,0.1-0.1,0.1s-0.1,0-0.3,0.1s-0.2,0.1-0.2,0.1s0,0,0.2-0.1s0.3-0.1,0.3-0.1
	h-0.1c0,0-0.3,0-0.6,0.1c-0.3,0-0.6,0.1-0.6,0.2s0,0.2-0.4,0.3c-0.3,0.1-0.6,0.1-0.6,0.2l-0.1,0.1c0,0,0.1,0,0.3-0.1
	c0.3-0.1,0.4-0.2,0.4-0.1c0,0-0.4,0.3-0.8,0.3c-0.2,0-0.3,0-0.4,0s-0.2,0.1-0.5,0.3c-0.3,0.3-0.4,0.4-0.4,0.4s0,0,0.1,0
	s0.2-0.1,0.3-0.2c0-0.1,0.1-0.1,0,0c-0.2,0.2-0.2,0.2-0.2,0.2s-0.1,0-0.2,0s-0.6,0-1.1,0.6c-0.5,0.5-1,1-1.2,1.4
	c-0.2,0.4-0.3,0.4-0.3,0.5c-0.1,0.1-0.1,0.1-0.1,0.1h0.2c0,0-0.2,0.4-0.3,0.7c-0.1,0.3-0.2,0.3-0.3,0.5s-0.2,0.4-0.2,0.8
	c0,0.4-0.1,0.9-0.1,1.2c0,0.3-0.1,0.7-0.1,1c0,0.3,0,0.4,0,0.6s0,0.4,0.2,0.7c0.2,0.2,0.2,0.3,0.2,0.3c0,0.1,0,0.1,0,0.2
	s0,0.3,0,0.3s0.1,0.1,0.1,0.2s0.1,0.2,0.1,0.2h-0.1c0,0,0.4,1.3,0.5,1.3s0.1-0.6,0.3-0.6c0.1,0,0.1,0.1,0.2,0.2
	c0.1,0.1,0.2,0.4,0.3,0.6c0.2,0.4,0.2,0.5,0.2,0.5s-0.2-0.1-0.3-0.2s-0.1-0.2-0.1,0c0,0.1,0,0.1,0,0.2s0.1,0.1,0.1,0.2
	c0.1,0.2,0.2,0.3,0.3,0.4s0.1,0.1,0.1,0.2c0,0-0.1,0-0.1,0.1c0,0-0.1,0-0.1,0.1c0,0,0.1,0.2,0.2,0.3c0.1,0.1,0.2,0.2,0.2,0.2
	s-0.2-0.1-0.3-0.1s-0.1,0-0.1,0.1s0.6,0.7,0.7,0.9c0.1,0.2,0.3,0.5,0.3,0.5l0.1-0.2v0.2c0,0,0.2,0.3,0.2,0.4c0,0,0,0.1,0.1,0.1
	l0.1,0.1c0,0,0.1,0.1,0.1,0.2c0,0,0,0.1,0.1,0.1s0.1,0,0.2,0s0.1,0,0.1,0.1c0,0.1,0.1,0.2,0.2,0.3l0.1,0.1c0,0,0.1,0,0.1,0.1
	l0.1,0.1c0,0,0,0,0.1,0c0,0,0.1,0.1,0.2,0.1s0.1,0,0.1,0l-0.2,0.2l0.5,0.2c0,0,0,0,0,0.1s0.2,0.1,0.3,0.1s0.5,0.2,0.4,0.1
	s-0.2-0.3-0.2-0.3s0.2,0.2,0.3,0.3c0.1,0,0.1,0.1,0.2,0.2c0.1,0.1,0.2,0.2,0.3,0.3c0.1,0.1,0.3,0.2,1.1,0.5c0.2,0.1,0.4,0,0.6,0
	s0.7,0.2,0.7,0.2s-0.5,0-0.9,0c-0.4,0-0.5,0-0.5,0s-0.2,0-0.4-0.1s-0.4-0.1-0.6-0.2c-0.1,0-0.6-0.2-0.8-0.3c-0.3-0.1-1-0.3-1.4-0.5
	c-0.4-0.2-1.1-0.5-1.6-0.9c-0.5-0.4-0.9-0.8-1.6-1.6c-0.6-0.8-1-1.4-1.3-2c-0.3-0.6-0.5-1.4-0.6-2.3c0-0.3,0-1.3,0-2
	c0-0.8,0-1,0-1.2s0-0.5,0-0.7c0-0.2,0.1-1.2,0.1-1.4c0-0.1-0.1-0.2-0.1-0.3c0-0.1,0.4-1.3,0.5-1.7c0.1-0.3,0.4-0.8,0.4-1
	c0.1-0.1,0.1-0.2,0.1-0.2s0,0.1,0.1,0.1s0.2-0.2,0.2-0.3c0.1-0.1,0.2-0.3,0.2-0.5c0-0.2,0.1-0.3,0.1-0.4s0.1-0.2,0.1-0.2
	s0-0.1,0.1-0.1c0.1,0,0,0,0.1-0.3c0.1-0.2,0.2-0.3,0.2-0.4s0.3-0.3,0.4-0.4c0.1-0.1,0.3-0.3,0.5-0.4c0.1-0.1,0.4-0.4,0.5-0.5
	s0.2-0.2,0.2-0.2v0.1c0,0.1,0,0.1,0.1,0c0.1-0.1,0.3-0.3,0.4-0.4c0.2-0.1,0.4-0.3,0.6-0.4c0.2-0.1,0.5-0.2,0.8-0.4
	c0.3-0.1,0.7-0.2,0.9-0.4c0.2-0.1,0.5-0.2,0.5-0.2s-0.2,0.2,0,0.2s0.7-0.2,0.9-0.2c0.1,0,0.2,0,0.2,0s-0.2,0.1-0.3,0.2
	s-0.2,0.1-0.2,0.1s0.4-0.1,0.5-0.1s0.1,0.1,0.3,0.1s0.4,0,0.4,0s-0.1,0.1-0.2,0.1s-0.1,0-0.2,0c-0.1,0-0.1,0.1,0,0.1s0.4,0,0.5,0
	c0.2,0,0.2-0.2,0.4-0.2c0.1,0,0.6,0.2,0.6,0.2l-0.1-0.2c0,0,0.7,0.3,0.9,0.3c0.2,0,0.4,0.1,0.6,0.2c0.2,0.1,0.7,0.4,0.7,0.4
	s0.2,0,0.3,0s0.1-0.1,0.2-0.1c0.1,0,0.5,0.1,0.5,0.2s0,0.1,0.1,0.2c0.1,0,0.5,0.4,0.5,0.4s0.1,0,0-0.1c-0.1-0.1-0.3-0.3-0.3-0.3
	s0.3,0.2,0.5,0.3c0.1,0.1,0.5,0.3,0.8,0.5c0.3,0.2,0.6,0.5,0.8,0.7s0.7,0.8,0.9,1.3c0.2,0.5,0.4,1.2,0.4,1.2l-0.3-0.5
	c0,0,0.1,0.6,0.2,0.7c0,0.1,0,0.1,0,0.1s-0.1,0,0,0.1s0.2,0.5,0.2,0.7c0.1,0.2,0.2,0.8,0.2,0.8S542.4,285.1,542.3,284.8z
	 M537.4,288.9c0.1-0.1,0.2-0.1,0.3-0.2c0.1-0.2,0.2-0.5,0.2-0.5s-0.1,0.5-0.2,0.6c-0.1,0.2-0.1,0.1-0.2,0.2c0,0.1-0.1,0.1-0.1,0
	V288.9c-0.1,0-0.2,0.2-0.2,0.1s-0.1,0-0.1,0s0,0,0-0.1c0,0,0.1-0.2,0.3-0.4c0.1-0.2,0.2-0.3,0.2-0.3s-0.1,0.2-0.2,0.3
	c-0.1,0.1-0.3,0.4-0.3,0.4C537.1,289,537.2,288.9,537.4,288.9z M536.4,289.5c0.1,0-0.2,0.2-0.3,0.3H536c0,0,0,0-0.2,0
	s-0.4-0.1-0.4-0.2c0,0,0.1,0,0.2,0c0.1,0,0.2,0,0.6,0C536.2,289.5,536.3,289.5,536.4,289.5z M538,287c0,0,0.1-0.1,0.1-0.2
	s0.1-0.2,0.1-0.2s0,0,0,0.3s-0.1,0.4-0.1,0.4S538,287.2,538,287C538,287.1,538,287,538,287z"/>
<path d="M481.8,340h1.2c0,1,0.7,1.4,1.7,1.4s1.4-0.5,1.4-1c0-0.5-0.3-0.7-0.6-0.8c-0.5-0.2-1-0.3-1.9-0.5c-1.1-0.3-1.5-1-1.5-1.7
	c0-1.3,1.2-1.9,2.4-1.9c1.4,0,2.5,0.7,2.5,2.1h-1.1c-0.1-0.8-0.6-1.2-1.4-1.2c-0.5,0-1.2,0.2-1.2,0.9c0,0.5,0.3,0.7,0.8,0.8
	c0.1,0,1.5,0.4,1.9,0.5c0.9,0.3,1.3,1,1.3,1.7c0,1.5-1.3,2.1-2.6,2.1C483.1,342.3,481.9,341.6,481.8,340L481.8,340z M493.5,337.5h-1
	v2.7c0,0.7-0.3,1.3-1.2,1.3c-0.6,0-0.9-0.3-0.9-1.1v-2.9h-1v3c0,1.2,0.5,1.8,1.8,1.8c0.5,0,1.1-0.3,1.3-0.8l0,0v0.6h1L493.5,337.5
	L493.5,337.5z M495.6,340c0,1.6,1.2,2.3,2.7,2.3c1.3,0,2.6-0.6,2.6-2.1c0-0.7-0.4-1.4-1.3-1.7c-0.3-0.1-1.8-0.5-1.9-0.5
	c-0.5-0.1-0.8-0.4-0.8-0.8c0-0.7,0.7-0.9,1.2-0.9c0.8,0,1.4,0.3,1.4,1.2h1.2c0-1.4-1.2-2.1-2.5-2.1c-1.2,0-2.4,0.6-2.4,1.9
	c0,0.7,0.3,1.4,1.4,1.7c0.9,0.2,1.5,0.4,2,0.5c0.3,0.1,0.5,0.3,0.5,0.8c0,0.5-0.4,1-1.4,1c-0.9,0-1.6-0.4-1.6-1.4h-1.1V340z
	 M503.3,342.2h4.8v-1h-3.6v-1.9h3.3v-0.9h-3.3v-1.7h3.6v-1h-4.7L503.3,342.2L503.3,342.2z M480.8,332.9h1.3c0.2,0.4,0.5,0.6,1.1,0.7
	l0,0c0.4,0,0.6-0.4,0.6-0.7h1.4c0.2,1.1-0.2,1.8-1.3,1.9C482.3,334.9,481.4,334.4,480.8,332.9C480.9,333,480.9,333,480.8,332.9
	L480.8,332.9z M482.7,332.9h0.7c0,0.1-0.1,0.2-0.2,0.3C483,333.2,482.8,333.1,482.7,332.9L482.7,332.9z M488.3,332.9h1.2
	c0,0.3,0,0.6-0.7,0.6C488.3,333.5,488.3,333.1,488.3,332.9L488.3,332.9z M491,332.9h1.2c0,0.1,0,0.2,0,0.3c0,0.1-0.1,0.5-0.6,0.4
	C491.1,333.5,491,333.4,491,332.9L491,332.9z M498.5,332.9h1.1c0,0.3,0,0.6-0.4,0.7C498.5,333.6,498.5,333.2,498.5,332.9
	L498.5,332.9z M501.1,332.9h1.1c0,0.4,0,0.5-0.3,0.6C501.5,333.6,501.3,333.4,501.1,332.9L501.1,332.9z M480.7,330.9h1.9
	c-0.2,0.2-0.4,0.4-0.5,0.7l0,0c-0.1,0.4-0.1,0.9,0.1,1.3h-1.3C480.6,332.3,480.6,331.6,480.7,330.9L480.7,330.9z M488.1,330.9h1.5
	c0,0.4,0,0.6-0.1,2l0,0h-1.2l0,0L488.1,330.9L488.1,330.9z M491,330.9h1.4c0,0.1,0,0.2,0,0.4c-0.1,0.6-0.1,0.9-0.2,1.6H491
	c0-0.2,0-0.3,0-0.5c0-0.3,0-1.2,0-1.2C491,331.1,491.1,331,491,330.9L491,330.9z M497.9,330.9h1.4c0,0,0,0,0,0.1
	c0.1,0.6,0.1,1.2,0.2,1.7c0,0.1,0,0.1,0,0.2h-1.1c0,0,0,0,0-0.1L497.9,330.9L497.9,330.9z M500.4,330.9h1.5
	c-0.2,0.5,0.2,1.5,0.2,1.5c0.1,0.2,0.1,0.4,0.1,0.5h-1.1l0,0c-0.1-0.3-0.2-0.4-0.2-0.4L500.4,330.9L500.4,330.9z M483.4,332.9h-0.7
	c-0.3-0.3-0.3-0.6-0.2-1.1c0.2-0.4,0.6-0.5,1-0.6l0.3-0.1c0.5,0.1,1,0.6,1.4,1.5c0,0.1,0.1,0.2,0.1,0.3h-1.4c0-0.5-0.2-1-0.6-0.8
	c-0.3,0.1-0.1,0.5,0.1,0.5C483.4,332.7,483.4,332.8,483.4,332.9L483.4,332.9z M481.7,328.3c-0.6,0.9-0.9,1.8-1,2.7h1.9
	c0.1-0.1,0.2-0.1,0.3-0.1c0.2-0.1,0.4-0.1,0.6-0.2c0.2-0.5,0.7-0.9,1.6-1.2c1.5-0.4,2.9-0.1,3.1,1.4v0.2h1.5c0-0.1,0-0.1,0-0.2
	c0.1-0.7,1.4-0.9,1.4,0.2h1.4c0.1-0.5,0.4-0.7,1.7-0.5c0.9,0.3,1.5,0.1,2.7,0c0.9-0.2,0.8,0,1,0.5l0,0h1.4c-0.1-0.6,0.4-1.8,1.2-0.1
	v0.1h1.5c0.1-0.2,0.3-0.4,0.6-0.4c0.2,0,0.5-0.1,0.5-0.2c-0.6-0.3-1-0.6-2.2-1.5c-0.2-0.2,0-0.6,0.3-0.4c1.5,1.2,1.9,1.6,3.3,1.9
	c1.6,0.1,3.2-0.6,4-2.1h-0.8c-0.6,0.2-1.2,0.3-2,0.3c-0.4,0-0.8-0.1-1.1-0.2c-0.1,0-0.2-0.1-0.4-0.1L481.7,328.3L481.7,328.3z
	 M504.2,328.3h-22.5c0.4-0.6,0.9-1.2,1.5-1.8c2.8-2.4,4.4-2.8,6.5-3.5c2.3-0.6,6.4-1.1,9.2-0.5c3,0.6,3.5,0.7,5.9,2.2
	c1.6-0.5,3.5,1.2,3.9,2.7c-0.8,0.3-1.7,0.7-3,0.7c-0.9,0-2-0.7-2.9-0.9c-0.2,0-0.3,0.4,0,0.5C503.3,327.9,503.8,328.1,504.2,328.3
	L504.2,328.3z M508.5,328.3h-0.8c0.3-0.1,0.6-0.2,0.9-0.3C508.6,328,508.5,328.2,508.5,328.3L508.5,328.3z M505.6,325
	c-0.7,0-1.2,0.5-1.2,1.2s0.5,1.4,1.2,1.4s1.5-0.5,1.5-1.2C507.1,325.6,506.3,325,505.6,325L505.6,325z M505.7,325.4c0.6,0,1,0.4,1,1
	c0,0.5-0.4,0.9-1,0.9s-1-0.4-1-0.9C504.7,325.8,505.2,325.4,505.7,325.4L505.7,325.4z M505.8,325.7c-0.3,0-0.7,0.3-0.7,0.6
	c0,0.4,0.4,0.6,0.7,0.6c0.4,0,0.6-0.3,0.6-0.6C506.3,325.9,506.2,325.7,505.8,325.7L505.8,325.7z M505.7,326.1
	c0.2,0,0.3,0.1,0.3,0.3c0,0.2-0.1,0.3-0.3,0.3c-0.2,0-0.3-0.1-0.3-0.3C505.4,326.2,505.5,326.1,505.7,326.1L505.7,326.1z M486,333.9
	c0,0.5-0.3,0.7-0.3,0.7h22.2v-0.7C499.9,333.9,492.6,333.9,486,333.9L486,333.9z"/>
<g id="b75708d097f2188dff6617b0f00f7c43">
	<path d="M119.3,327.8h13.9v11.3c0,0.7-0.5,1.2-1.2,1.2h-1.4v3.4c0,0.9-0.7,1.6-1.6,1.6c-0.9,0-1.6-0.7-1.6-1.6v-3.4H125v3.4
		c0,0.9-0.7,1.6-1.6,1.6c-0.9,0-1.6-0.7-1.6-1.6v-3.4h-1.4c-0.7,0-1.2-0.5-1.2-1.2L119.3,327.8L119.3,327.8z M116.6,327.8
		c-0.9,0-1.6,0.7-1.6,1.6v6.3c0,0.9,0.7,1.6,1.6,1.6c0.9,0,1.6-0.7,1.6-1.6v-6.3C118.1,328.5,117.4,327.8,116.6,327.8z M133.2,326.7
		h-13.9c0.2-2,1.5-3.7,3.3-4.7l-1.3-1.9c-0.2-0.3-0.1-0.6,0.2-0.8c0.3-0.2,0.6-0.1,0.8,0.2l1.4,2.1c0.8-0.3,1.7-0.4,2.6-0.4
		c0.9,0,1.8,0.2,2.6,0.4l1.4-2.1c0.2-0.3,0.5-0.3,0.8-0.2c0.3,0.2,0.3,0.5,0.2,0.8l-1.3,1.9C131.7,323,133,324.7,133.2,326.7z
		 M124.1,324c0-0.4-0.3-0.8-0.8-0.8c-0.4,0-0.8,0.3-0.8,0.8c0,0.4,0.3,0.8,0.8,0.8S124.1,324.4,124.1,324z M130,324
		c0-0.4-0.3-0.8-0.8-0.8c-0.4,0-0.8,0.3-0.8,0.8c0,0.4,0.3,0.8,0.8,0.8C129.7,324.8,130,324.4,130,324z M135.9,327.8
		c-0.9,0-1.6,0.7-1.6,1.6v6.3c0,0.9,0.7,1.6,1.6,1.6c0.9,0,1.6-0.7,1.6-1.6v-6.3C137.5,328.5,136.8,327.8,135.9,327.8z"/>
</g>
</svg>
