<?xml version="1.0" encoding="UTF-8" standalone="no"?>
<!-- Created with Inkscape (http://www.inkscape.org/) -->
<svg
   xmlns:dc="http://purl.org/dc/elements/1.1/"
   xmlns:cc="http://web.resource.org/cc/"
   xmlns:rdf="http://www.w3.org/1999/02/22-rdf-syntax-ns#"
   xmlns:svg="http://www.w3.org/2000/svg"
   xmlns="http://www.w3.org/2000/svg"
   xmlns:sodipodi="http://sodipodi.sourceforge.net/DTD/sodipodi-0.dtd"
   xmlns:inkscape="http://www.inkscape.org/namespaces/inkscape"
   width="64.000000px"
   height="64.000000px"
   id="svg2"
   sodipodi:version="0.32"
   inkscape:version="0.45"
   sodipodi:docbase="/home/nicu/Desktop/centos"
   sodipodi:docname="centos.svg"
   inkscape:output_extension="org.inkscape.output.svg.inkscape"
   sodipodi:modified="true">
  <defs
     id="defs3" />
  <sodipodi:namedview
     id="base"
     pagecolor="#ffffff"
     bordercolor="#666666"
     borderopacity="1.0"
     inkscape:pageopacity="0.0"
     inkscape:pageshadow="2"
     inkscape:zoom="1"
     inkscape:cx="32"
     inkscape:cy="32"
     inkscape:document-units="px"
     inkscape:current-layer="g2298"
     showguides="true"
     inkscape:guide-bbox="true"
     inkscape:window-width="1152"
     inkscape:window-height="791"
     inkscape:window-x="0"
     inkscape:window-y="24" />
  <metadata
     id="metadata4">
    <rdf:RDF>
      <cc:Work
         rdf:about="">
        <dc:format>image/svg+xml</dc:format>
        <dc:type
           rdf:resource="http://purl.org/dc/dcmitype/StillImage" />
      </cc:Work>
    </rdf:RDF>
  </metadata>
  <g
     inkscape:label="Layer 1"
     inkscape:groupmode="layer"
     id="layer1">
    <g
       id="g2298"
       transform="translate(-165.57634,-698.65973)">
      <rect
         transform="matrix(-0.7071233,-0.7070903,0.7071233,-0.7070903,0,0)"
         y="-375.16251"
         x="-654.55585"
         height="18.998014"
         width="19.000521"
         id="rect2070"
         style="fill:#efa724;fill-opacity:1;stroke:none;stroke-width:1.00005305;stroke-miterlimit:4;stroke-opacity:1" />
      <rect
         transform="matrix(-0.7071253,-0.7070883,0.7071253,-0.7070883,0,0)"
         y="-397.79163"
         x="-654.55774"
         height="18.998116"
         width="19.000624"
         id="rect2068"
         style="fill:#932279;fill-opacity:1;stroke:none;stroke-width:1.00005448;stroke-miterlimit:4;stroke-opacity:1" />
      <rect
         y="709.15631"
         x="176.12981"
         height="18.947376"
         width="18.949768"
         id="rect1274"
         style="fill:#9ccd2a;fill-opacity:1;stroke:none;stroke-width:1.00000048;stroke-miterlimit:4;stroke-opacity:1" />
      <rect
         transform="matrix(-0.7071298,-0.7070838,0.7071298,-0.7070838,0,0)"
         y="-397.82132"
         x="-677.16235"
         height="18.94832"
         width="18.950821"
         id="rect2064"
         style="fill:#9ccd2a;fill-opacity:1;stroke:none;stroke-width:1.00005519;stroke-miterlimit:4;stroke-opacity:1" />
      <rect
         y="733.10638"
         x="176.12979"
         height="18.997324"
         width="18.999775"
         id="rect2039"
         style="fill:#262577;fill-opacity:1;stroke:none;stroke-width:1;stroke-miterlimit:4;stroke-opacity:1" />
      <rect
         transform="matrix(-0.7071253,-0.7070883,0.7071253,-0.7070883,0,0)"
         y="-375.16501"
         x="-677.18439"
         height="18.998064"
         width="19.000608"
         id="rect2066"
         style="fill:#262577;fill-opacity:1;stroke:none;stroke-width:1.00005305;stroke-miterlimit:4;stroke-opacity:1" />
      <rect
         y="709.10638"
         x="200.12953"
         height="18.99736"
         width="18.999783"
         id="rect2041"
         style="fill:#932279;fill-opacity:1;stroke:none;stroke-width:1.00000048;stroke-miterlimit:4;stroke-opacity:1" />
      <rect
         transform="matrix(-0.7071253,-0.7070883,0.7071253,-0.7070883,0,0)"
         y="-375.16501"
         x="-677.18439"
         height="18.998072"
         width="19.000616"
         id="rect2082"
         style="fill:#262577;fill-opacity:1;stroke:none;stroke-width:1.00005233;stroke-miterlimit:4;stroke-opacity:1" />
      <rect
         y="733.10632"
         x="200.12953"
         height="18.997362"
         width="18.999775"
         id="rect2086"
         style="fill:#efa724;fill-opacity:1;stroke:none;stroke-width:1;stroke-miterlimit:4;stroke-opacity:1" />
      <path
         id="rect2140"
         d="M 197.57593,728.80659 L 197.92949,728.45305 L 211.36492,715.01842 L 211.71848,714.66488 L 211.36492,714.31133 L 197.92949,700.8767 L 197.57593,700.52316 L 197.22236,700.8767 L 183.78693,714.31133 L 183.43337,714.66488 L 183.78693,715.01842 L 197.22236,728.45305 L 197.57593,728.80659 z M 197.57593,727.39242 L 184.84763,714.66488 L 197.57593,701.93733 L 210.30423,714.66488 L 197.57593,727.39242 z "
         style="fill:#ffffff;fill-opacity:1;stroke:none;stroke-width:1.00005198;stroke-miterlimit:4;stroke-opacity:1" />
      <path
         id="rect2142"
         d="M 181.57755,744.80283 L 181.93111,744.44929 L 195.34447,731.03678 L 195.69803,730.68324 L 195.34447,730.3297 L 181.90901,716.89509 L 181.55545,716.54155 L 181.20188,716.89509 L 167.78852,730.3076 L 167.43496,730.66114 L 167.78852,731.01468 L 181.22398,744.44929 L 181.57755,744.80283 z M 181.57755,743.38866 L 168.84922,730.66114 L 181.55545,717.95572 L 194.28378,730.68324 L 181.57755,743.38866 z "
         style="fill:#ffffff;fill-opacity:1;stroke:none;stroke-width:1.00004995;stroke-miterlimit:4;stroke-opacity:1" />
      <path
         id="rect2144"
         d="M 175.625,708.65625 L 175.625,709.15625 L 175.625,728.09375 L 175.625,728.59375 L 176.125,728.59375 L 195.09375,728.59375 L 195.59375,728.59375 L 195.59375,728.09375 L 195.59375,709.15625 L 195.59375,708.65625 L 195.09375,708.65625 L 176.125,708.65625 L 175.625,708.65625 z M 176.625,709.65625 L 194.59375,709.65625 L 194.59375,727.59375 L 176.625,727.59375 L 176.625,709.65625 z "
         style="fill:#ffffff;fill-opacity:1;stroke:none;stroke-width:1.00000095;stroke-miterlimit:4;stroke-opacity:1" />
      <path
         id="rect2146"
         d="M 197.53327,760.79631 L 197.88683,760.44277 L 211.27817,747.05243 L 211.63174,746.69889 L 211.27817,746.34535 L 197.88683,732.95502 L 197.53327,732.60148 L 197.1797,732.95502 L 183.78836,746.34535 L 183.4348,746.69889 L 183.78836,747.05243 L 197.1797,760.44277 L 197.53327,760.79631 z M 197.53327,759.38215 L 184.84906,746.69889 L 197.53327,734.01564 L 210.21747,746.69889 L 197.53327,759.38215 z "
         style="fill:#ffffff;fill-opacity:1;stroke:none;stroke-width:1.00005817;stroke-miterlimit:4;stroke-opacity:1" />
      <path
         id="rect2148"
         d="M 175.625,732.59375 L 175.625,733.09375 L 175.625,752.09375 L 175.625,752.59375 L 176.125,752.59375 L 195.125,752.59375 L 195.625,752.59375 L 195.625,752.09375 L 195.625,733.09375 L 195.625,732.59375 L 195.125,732.59375 L 176.125,732.59375 L 175.625,732.59375 z M 176.625,733.59375 L 194.625,733.59375 L 194.625,751.59375 L 176.625,751.59375 L 176.625,733.59375 z "
         style="fill:#ffffff;fill-opacity:1;stroke:none;stroke-width:1;stroke-miterlimit:4;stroke-opacity:1" />
      <path
         id="rect2150"
         d="M 213.57515,744.80283 L 213.92871,744.44929 L 227.36417,731.01468 L 227.71773,730.66114 L 227.36417,730.3076 L 213.92871,716.873 L 213.57515,716.51946 L 213.22158,716.873 L 199.78613,730.3076 L 199.43256,730.66114 L 199.78613,731.01468 L 213.22158,744.44929 L 213.57515,744.80283 z M 213.57515,743.38866 L 200.84682,730.66114 L 213.57515,717.93362 L 226.30347,730.66114 L 213.57515,743.38866 z "
         style="fill:#ffffff;fill-opacity:1;stroke:none;stroke-width:1.00004852;stroke-miterlimit:4;stroke-opacity:1" />
      <path
         id="rect2152"
         d="M 199.625,708.59375 L 199.625,709.09375 L 199.625,728.09375 L 199.625,728.59375 L 200.125,728.59375 L 219.125,728.59375 L 219.625,728.59375 L 219.625,728.09375 L 219.625,709.09375 L 219.625,708.59375 L 219.125,708.59375 L 200.125,708.59375 L 199.625,708.59375 z M 200.625,709.59375 L 218.625,709.59375 L 218.625,727.59375 L 200.625,727.59375 L 200.625,709.59375 z "
         style="fill:#ffffff;fill-opacity:1;stroke:none;stroke-width:1.00000048;stroke-miterlimit:4;stroke-opacity:1" />
      <path
         id="rect2154"
         d="M 199.625,732.59375 L 199.625,733.09375 L 199.625,752.09375 L 199.625,752.59375 L 200.125,752.59375 L 219.125,752.59375 L 219.625,752.59375 L 219.625,752.09375 L 219.625,733.09375 L 219.625,732.59375 L 219.125,732.59375 L 200.125,732.59375 L 199.625,732.59375 z M 200.625,733.59375 L 218.625,733.59375 L 218.625,751.59375 L 200.625,751.59375 L 200.625,733.59375 z "
         style="fill:#ffffff;fill-opacity:1;stroke:none;stroke-width:1;stroke-miterlimit:4;stroke-opacity:1" />
    </g>
  </g>
</svg>
